<?xml version="1.0" standalone="no"?>
<!DOCTYPE svg PUBLIC "-//W3C//DTD SVG 20010904//EN"
 "http://www.w3.org/TR/2001/REC-SVG-20010904/DTD/svg10.dtd">
<svg version="1.0" xmlns="http://www.w3.org/2000/svg"
 width="1280.000000pt" height="640.000000pt" viewBox="0 0 1280.000000 640.000000"
 preserveAspectRatio="xMidYMid meet">
<metadata>
Created by potrace 1.15, written by Peter Selinger 2001-2017
</metadata>
<g transform="translate(0.000000,640.000000) scale(0.100000,-0.100000)"
fill="#000000" stroke="none">
<path d="M6865 5561 c-101 -50 -164 -100 -184 -149 -7 -16 -30 -37 -56 -51
-54 -29 -69 -50 -85 -123 -11 -48 -10 -62 4 -104 9 -26 16 -56 16 -66 0 -24
38 -38 100 -38 28 0 61 -7 79 -17 28 -17 31 -22 31 -70 l0 -52 41 -11 c22 -6
43 -18 46 -26 3 -9 29 -26 57 -38 64 -28 84 -50 66 -71 -7 -8 -25 -15 -40 -15
-26 0 -120 -31 -202 -67 -23 -9 -38 -23 -38 -33 0 -33 -40 -68 -107 -95 -61
-24 -87 -27 -268 -36 -110 -5 -260 -13 -332 -18 -157 -11 -182 -6 -255 52 -29
23 -79 51 -110 61 -56 19 -58 20 -58 56 0 42 -14 60 -48 60 -40 0 -87 -36
-116 -89 -15 -28 -30 -52 -34 -55 -16 -10 -91 33 -108 62 -21 36 -74 68 -98
59 -10 -4 -16 -18 -16 -36 0 -16 -3 -32 -7 -34 -13 -7 -265 39 -508 92 -356
79 -556 136 -639 181 -78 43 -271 100 -420 125 -50 8 -119 22 -154 31 -49 13
-69 14 -88 5 -21 -9 -32 -7 -64 11 -31 18 -42 20 -52 10 -7 -7 -8 -15 -3 -21
22 -21 150 -63 246 -81 56 -11 132 -28 168 -39 36 -10 102 -28 146 -39 44 -11
134 -43 200 -70 109 -45 268 -91 370 -107 22 -3 112 -24 200 -45 88 -22 248
-55 355 -75 233 -42 230 -41 230 -66 0 -10 -1 -19 -2 -19 -2 0 -39 6 -83 14
-82 15 -129 25 -345 77 -69 17 -195 44 -280 60 -85 17 -189 39 -232 50 -45 11
-144 23 -243 29 -92 6 -193 17 -224 25 -32 8 -109 22 -172 30 -63 9 -147 23
-187 31 -40 9 -76 14 -79 10 -11 -10 17 -34 65 -54 93 -40 427 -101 614 -112
95 -6 178 -18 248 -36 58 -14 289 -63 513 -108 281 -57 413 -88 425 -99 15
-16 -68 -17 -1238 -17 -1381 0 -2193 -12 -2244 -34 -40 -17 -191 -139 -213
-172 -9 -14 -17 -43 -17 -64 -1 -36 -5 -41 -76 -88 -41 -27 -127 -97 -192
-154 -64 -58 -129 -108 -144 -112 -62 -16 -152 -98 -238 -216 -25 -36 -70 -96
-100 -133 -87 -111 -92 -163 -22 -237 19 -19 37 -48 41 -65 4 -16 7 -106 6
-200 0 -93 3 -207 7 -253 9 -98 3 -106 -72 -96 -25 4 -53 4 -62 0 -15 -6 -15
-8 -1 -24 10 -11 13 -23 8 -31 -10 -16 -31 -6 -31 14 0 8 -17 19 -37 24 -51
15 -63 14 -63 -4 0 -20 -9 -19 -45 5 -63 42 -93 5 -35 -43 40 -34 93 -51 162
-51 32 -1 58 -4 58 -8 0 -13 -100 -9 -163 6 -31 7 -59 10 -62 6 -10 -17 24
-40 79 -55 78 -19 83 -28 17 -23 -37 2 -55 -1 -58 -9 -7 -20 42 -33 126 -33
69 0 80 -3 100 -24 19 -21 20 -24 6 -30 -28 -10 -76 -6 -165 14 -86 19 -110
16 -110 -16 0 -11 -22 -14 -99 -14 -103 0 -138 9 -211 55 -34 22 -40 22 -51 9
-19 -23 -2 -44 64 -79 31 -16 57 -36 57 -42 0 -7 12 -21 27 -30 24 -16 50 -18
232 -15 164 2 208 5 220 17 13 12 12 15 -2 21 -37 14 -16 26 33 20 107 -14
132 -48 49 -65 -28 -6 -90 -25 -136 -41 -65 -23 -102 -30 -159 -30 -60 0 -74
-3 -74 -15 0 -24 45 -36 129 -33 90 2 154 -18 159 -51 3 -16 11 -21 35 -21 48
0 96 16 115 39 l17 21 44 -20 c25 -12 64 -26 89 -32 30 -7 46 -18 52 -33 6
-16 31 -30 97 -53 48 -17 109 -36 136 -42 26 -7 50 -17 53 -22 4 -6 -1 -8 -12
-4 -25 7 -48 -8 -41 -27 9 -23 69 -37 192 -43 61 -2 125 -7 143 -9 36 -4 43
15 17 51 -12 18 -29 23 -97 28 -77 6 -202 38 -221 56 -5 4 15 11 45 15 104 13
181 36 260 76 44 22 83 37 87 34 9 -10 -47 -54 -77 -61 -41 -8 -57 -19 -60
-41 -4 -29 42 -63 87 -63 20 0 43 -5 51 -10 12 -8 9 -10 -13 -10 -48 0 -25
-22 48 -47 46 -15 80 -21 105 -17 43 7 180 -12 195 -27 7 -7 -14 -9 -64 -7
-52 2 -75 -1 -78 -9 -6 -16 33 -31 127 -49 41 -8 91 -21 111 -30 33 -14 44
-14 125 1 103 19 190 55 219 90 14 17 35 27 68 31 26 4 47 3 47 -2 -1 -5 -40
-35 -88 -66 -85 -56 -188 -107 -367 -184 -94 -40 -281 -162 -515 -334 -74 -54
-162 -116 -195 -136 -33 -20 -70 -46 -82 -57 -41 -36 -22 -87 24 -70 20 7 228
155 478 338 154 114 203 143 345 207 94 42 287 138 341 170 59 35 325 213 519
348 63 44 153 105 200 137 169 114 714 493 899 625 41 29 152 107 245 173 94
67 185 135 203 153 34 35 63 41 83 17 18 -21 -14 -54 -93 -96 -34 -18 -91 -56
-127 -85 -36 -28 -166 -123 -290 -211 -310 -220 -614 -443 -681 -501 -31 -27
-77 -62 -103 -78 -26 -16 -80 -57 -119 -92 -40 -35 -124 -99 -187 -143 -63
-44 -133 -92 -155 -108 -22 -16 -71 -49 -110 -74 -38 -25 -119 -86 -178 -136
-59 -49 -123 -99 -142 -111 -19 -11 -66 -62 -104 -113 -51 -66 -100 -115 -172
-172 -134 -106 -178 -144 -190 -168 -16 -30 2 -41 43 -28 31 10 40 8 84 -16
68 -38 158 -37 268 3 76 28 109 54 69 54 -10 0 -27 7 -37 15 -11 8 -36 15 -57
15 -53 0 -129 12 -129 20 0 4 59 10 131 14 90 5 139 12 153 21 11 8 37 15 58
15 42 0 59 17 35 35 -31 22 -18 26 61 21 85 -7 145 8 150 36 3 14 -12 17 -105
23 -59 4 -136 13 -171 21 -80 18 -108 18 -115 0 -7 -17 23 -46 46 -46 9 0 19
-4 22 -10 7 -11 -112 -14 -139 -4 -34 13 -18 36 127 182 62 63 164 149 260
220 87 65 176 131 199 148 l41 31 32 -18 c17 -10 54 -22 81 -25 59 -8 87 -20
64 -28 -8 -2 -31 -7 -51 -10 -19 -4 -44 -13 -55 -21 -16 -13 -17 -16 -4 -25
46 -32 241 55 203 91 -10 8 -170 49 -195 49 -34 0 -18 25 50 76 37 28 72 54
78 57 6 3 37 -5 70 -18 l59 -25 -57 0 c-66 0 -88 -7 -88 -26 0 -8 1 -14 3 -15
1 0 39 -4 84 -8 57 -6 98 -16 132 -34 38 -20 59 -24 91 -20 29 4 45 1 58 -10
40 -36 263 -50 346 -22 53 18 96 11 96 -15 0 -21 38 -56 93 -85 20 -11 40 -28
43 -38 9 -28 68 -49 154 -54 80 -6 271 27 395 67 48 16 85 19 190 18 101 -2
144 2 192 16 53 16 66 16 100 5 21 -7 97 -15 173 -16 237 -6 310 -13 310 -28
0 -26 45 -39 155 -43 74 -2 144 2 215 13 182 30 177 30 159 10 -23 -23 -75
-33 -222 -41 -166 -9 -168 -28 -4 -32 64 -1 117 -6 117 -11 0 -34 -161 -84
-374 -116 -110 -16 -225 -6 -258 23 -11 9 -27 12 -42 8 -30 -7 -88 3 -80 15 3
5 59 9 126 9 122 0 216 16 268 46 24 14 22 15 -30 10 -30 -3 -126 -8 -213 -12
l-159 -7 4 24 c2 20 11 25 53 32 52 9 81 25 68 37 -4 4 -91 3 -193 -3 -175
-10 -191 -9 -305 12 -177 34 -185 35 -185 22 0 -6 12 -17 28 -24 15 -6 35 -21
44 -33 10 -12 53 -32 105 -48 48 -16 92 -32 96 -36 12 -11 -187 -57 -328 -75
-194 -25 -321 2 -432 91 -23 19 -44 34 -47 34 -3 0 -6 -11 -6 -25 0 -21 14
-35 81 -77 74 -47 79 -53 63 -65 -26 -19 -88 -34 -137 -33 -23 1 -71 -4 -107
-10 -37 -7 -117 -10 -188 -7 -126 5 -148 -1 -118 -31 37 -37 474 -22 559 19
l44 21 94 -42 c88 -41 100 -43 204 -48 106 -4 117 -3 320 48 176 44 218 51
265 45 58 -6 223 -53 302 -86 26 -10 69 -19 97 -19 28 0 51 -4 51 -9 0 -16
-94 -24 -288 -26 -106 -2 -195 -5 -198 -8 -12 -11 37 -27 104 -33 117 -11 419
28 553 72 43 14 48 13 100 -9 30 -13 62 -27 73 -30 13 -5 15 -11 8 -20 -16
-19 -2 -33 46 -47 23 -7 42 -19 42 -26 0 -8 12 -22 27 -31 23 -15 51 -18 183
-19 131 0 167 -4 230 -23 102 -31 374 -42 433 -18 32 14 50 36 30 37 -5 1 -91
2 -193 3 -186 3 -257 14 -233 38 14 14 124 16 302 5 120 -7 143 -6 139 5 -3 9
-24 15 -59 17 -30 1 -84 7 -121 13 -61 10 -68 13 -68 33 0 35 -8 36 -62 15
-34 -13 -61 -17 -84 -13 -39 7 -38 7 -21 34 10 17 9 22 -3 30 -20 13 -67 13
-75 0 -10 -16 -65 -12 -72 5 -6 18 -58 47 -67 38 -3 -4 -6 -14 -6 -24 0 -10
-5 -21 -10 -24 -25 -16 -122 -22 -196 -14 -83 9 -214 44 -214 57 0 4 48 23
107 42 105 34 143 60 88 60 -15 0 -71 -14 -126 -31 -111 -34 -152 -34 -72 0
61 27 92 56 76 72 -8 8 -31 2 -79 -19 -93 -40 -199 -72 -238 -71 -27 1 -24 3
24 18 74 24 117 47 130 70 5 11 34 31 62 45 29 15 61 32 71 39 14 10 25 8 60
-11 23 -12 68 -27 101 -32 45 -7 67 -17 98 -46 76 -68 260 -136 513 -190 66
-14 137 -30 158 -37 29 -8 40 -8 46 1 6 10 34 10 128 1 104 -11 132 -10 213 5
133 24 208 67 180 101 -16 20 -29 19 -54 -4 -12 -10 -43 -27 -71 -36 -67 -24
-275 -32 -367 -15 -76 15 -95 8 -58 -20 30 -23 27 -24 -36 -6 -27 8 -66 17
-86 20 -21 4 -38 11 -38 15 0 10 100 21 189 21 156 0 321 34 321 67 0 16 -21
16 -125 -3 l-40 -7 21 24 c27 30 34 52 24 69 -6 10 -18 5 -51 -18 -24 -17 -72
-40 -107 -52 -81 -27 -246 -43 -347 -35 -160 14 -365 83 -373 127 -5 26 46 24
74 -3 22 -21 26 -21 211 -11 192 11 253 25 253 57 0 12 -16 13 -82 9 -46 -3
-92 -7 -102 -9 -11 -2 -26 0 -35 5 -9 4 -35 5 -59 0 -33 -6 -42 -4 -42 6 0 8
-11 14 -26 14 -15 0 -45 8 -68 19 -23 10 -54 24 -71 31 l-30 13 35 9 c41 12
162 -7 199 -31 38 -24 181 -17 247 13 57 26 124 73 124 87 0 4 -15 9 -32 11
-32 3 -32 3 -11 16 20 11 28 6 100 -66 109 -110 148 -124 348 -127 83 -1 170
-8 195 -14 28 -8 71 -11 115 -7 39 4 118 11 177 16 116 10 188 25 188 40 0 16
-92 12 -380 -16 -88 -8 -85 1 8 34 98 34 117 36 209 22 68 -11 102 -11 176 -1
103 14 177 41 177 67 0 14 -8 15 -57 9 -32 -4 -64 -12 -71 -17 -15 -13 -193
-24 -219 -14 -17 7 -17 8 1 21 10 8 39 17 65 20 71 10 79 14 90 45 7 20 18 31
38 35 15 3 66 17 113 30 146 42 159 41 303 -4 129 -41 172 -45 184 -15 3 10
23 14 60 14 42 0 54 3 50 14 -4 11 28 12 181 10 264 -5 261 -4 332 -74 33 -32
60 -64 60 -69 0 -22 310 -8 447 20 29 6 63 21 78 35 15 14 38 24 55 24 30 0
50 22 50 54 0 12 -10 16 -35 16 -19 0 -35 5 -35 10 0 6 -11 10 -25 10 -37 0
-31 26 8 34 17 3 44 9 59 12 21 5 27 2 33 -15 6 -20 14 -21 111 -21 78 0 106
-3 110 -13 3 -10 29 -13 97 -12 75 1 103 7 154 28 34 15 69 27 78 27 25 0 17
-28 -12 -42 -30 -15 -36 -27 -24 -47 8 -12 13 -12 33 1 39 26 83 31 117 14 28
-15 31 -15 41 3 8 16 6 23 -10 34 -19 13 -18 15 26 57 l45 43 39 -18 c59 -27
69 -15 25 33 -21 24 -35 45 -32 49 4 3 35 -7 69 -22 57 -26 76 -29 220 -34 95
-4 158 -10 158 -16 1 -5 -19 -12 -43 -15 -54 -7 -106 -38 -86 -51 8 -5 33 -9
55 -9 23 0 70 -9 104 -20 60 -19 64 -19 112 -2 l49 17 18 -24 c19 -25 51 -24
51 2 0 8 20 22 46 32 31 12 52 28 69 55 18 28 35 41 74 54 27 9 64 16 81 16
20 0 44 10 62 25 36 31 51 31 71 2 l16 -22 26 28 c15 17 25 40 25 58 0 27 -2
29 -42 29 -24 0 -61 5 -83 11 -76 21 -100 22 -114 5 -8 -9 -20 -16 -27 -16
-21 0 -144 51 -144 60 0 8 51 21 202 50 104 21 168 43 168 59 0 16 -98 13
-156 -3 -54 -16 -364 -81 -484 -101 -41 -7 -103 -20 -136 -29 -34 -9 -77 -16
-96 -16 -19 0 -43 -7 -54 -16 -18 -14 -16 -15 31 -9 28 3 95 10 149 15 55 6
108 13 119 16 31 10 191 32 199 28 30 -18 -54 -67 -106 -63 -27 3 -42 -4 -75
-34 -31 -28 -50 -37 -75 -37 -19 0 -37 4 -41 10 -3 5 -51 7 -118 4 -119 -6
-149 2 -171 41 -16 30 -27 35 -76 35 -50 0 -163 -48 -173 -73 -3 -8 -38 -25
-78 -38 -67 -21 -72 -21 -84 -6 -11 16 -33 17 -219 12 -168 -4 -217 -8 -268
-25 -90 -28 -260 -55 -353 -55 -64 0 -89 5 -127 24 -44 23 -49 23 -114 11 -74
-14 -154 -45 -154 -60 0 -13 31 -19 110 -23 46 -2 36 -4 -36 -5 -82 -2 -104 1
-115 14 -10 12 -25 14 -78 8 -36 -3 -79 -12 -96 -19 -16 -6 -61 -17 -100 -24
-38 -7 -80 -14 -91 -16 -15 -4 -23 1 -27 15 -5 19 -14 20 -184 21 -132 0 -195
5 -243 17 l-65 17 -80 -32 c-109 -43 -217 -64 -365 -70 -132 -5 -190 2 -308
37 l-73 21 -75 -37 -75 -37 -107 8 c-134 10 -429 7 -462 -5 -14 -4 -34 -11
-44 -14 -15 -5 -17 -9 -8 -18 9 -9 18 -8 37 2 24 13 46 8 31 -8 -9 -8 -336
-12 -336 -4 0 3 9 15 20 27 19 21 19 21 -6 49 -14 15 -32 25 -39 22 -7 -2 -50
-8 -96 -11 -73 -6 -87 -11 -106 -33 -13 -14 -23 -29 -23 -34 0 -6 -16 -7 -38
-3 -24 4 -50 1 -74 -10 -44 -18 -111 -19 -176 -4 -55 14 -61 17 -44 28 7 4 14
21 15 37 2 28 0 29 -43 29 -25 0 -63 4 -85 8 -109 22 -142 30 -160 42 -11 7
-34 15 -50 19 -17 4 -51 20 -75 36 -56 37 -75 37 -249 4 -107 -20 -143 -24
-169 -16 -24 8 -42 7 -61 0 -14 -6 -75 -11 -136 -11 -127 0 -204 19 -248 61
-28 25 -29 26 -23 5 9 -29 7 -29 -34 2 -44 33 -65 32 -107 -5 -26 -23 -43 -30
-77 -30 -30 0 -48 -6 -61 -20 -10 -11 -26 -22 -37 -26 -10 -3 -23 -16 -28 -28
-7 -19 -18 -24 -67 -29 -78 -8 -130 5 -167 43 -43 42 -27 49 100 42 75 -3 104
-2 104 7 0 6 -7 11 -15 11 -8 0 -15 9 -15 19 0 32 -54 43 -75 14 -10 -14 -17
-14 -46 -4 -19 7 -75 15 -126 18 -65 4 -90 9 -87 18 7 17 -11 29 -99 66 -43
18 -82 40 -88 50 -5 11 -24 26 -41 35 -25 13 -38 14 -72 5 -80 -20 -208 -43
-214 -37 -8 9 35 51 94 92 l52 36 153 -16 c85 -9 215 -25 289 -36 74 -11 306
-36 515 -55 209 -19 425 -39 480 -45 55 -5 146 -13 203 -16 89 -6 102 -5 102
9 0 17 -38 28 -115 33 -27 1 -138 12 -245 24 -263 28 -472 47 -605 55 -60 4
-150 13 -200 21 -95 14 -307 38 -437 49 -43 4 -78 11 -78 16 0 5 54 50 121 99
131 98 132 98 244 80 33 -5 168 -21 300 -35 227 -23 312 -32 670 -70 83 -9
193 -20 245 -25 52 -5 145 -16 205 -24 61 -9 209 -18 330 -21 121 -2 236 -7
255 -10 42 -6 284 -23 470 -33 200 -10 460 -9 460 3 -1 20 -60 26 -345 35
-159 5 -337 13 -395 19 -324 31 -557 40 -576 21 -7 -7 -20 -6 -40 4 -17 8 -88
19 -169 25 -142 10 -527 50 -678 70 -45 6 -133 16 -196 21 -143 14 -180 30
-61 27 69 -2 85 1 85 13 0 8 -13 18 -30 22 -16 4 -49 12 -72 18 -69 17 -53 33
25 25 52 -5 72 -3 87 9 28 21 9 36 -56 44 -64 8 -83 35 -23 32 58 -4 64 -2 64
20 0 30 19 33 137 21 174 -18 357 -30 708 -46 959 -44 1380 -55 1985 -55 492
1 632 5 890 29 63 6 203 15 310 21 439 23 763 53 995 89 66 11 167 24 225 31
58 6 123 17 145 25 64 22 230 54 357 70 65 8 153 25 195 39 43 13 114 31 158
40 44 8 161 31 260 52 99 21 214 44 255 51 41 8 116 27 165 43 50 16 110 31
135 35 42 5 44 5 20 -8 -14 -8 -72 -27 -130 -42 -127 -33 -400 -110 -455 -129
-22 -8 -69 -19 -105 -26 -80 -14 -101 -30 -40 -30 53 0 116 13 435 91 729 179
927 237 933 272 4 22 -36 23 -99 3 -92 -30 -432 -117 -443 -113 -15 6 55 34
144 59 109 30 260 80 382 127 59 23 119 41 135 41 21 0 45 -17 92 -61 63 -61
63 -62 59 -108 -3 -25 -15 -81 -28 -123 -19 -66 -26 -77 -49 -83 -14 -3 -60
-22 -102 -41 -42 -19 -85 -34 -96 -34 -11 0 -42 -11 -69 -25 -27 -14 -57 -25
-67 -25 -10 0 -30 -6 -45 -14 -15 -7 -94 -30 -177 -50 -82 -21 -210 -57 -285
-81 -95 -30 -169 -46 -250 -55 -63 -7 -123 -17 -133 -22 -9 -5 -57 -13 -105
-19 -116 -13 -162 -26 -162 -46 0 -14 10 -15 76 -9 41 4 87 11 102 17 14 5 75
17 135 24 171 23 287 44 352 65 33 10 144 41 246 69 103 28 212 60 242 71 30
11 88 30 129 41 40 11 104 31 141 46 38 14 70 23 72 21 2 -2 -9 -69 -24 -148
-16 -80 -32 -172 -36 -205 -13 -113 -44 -140 -173 -155 -42 -5 -97 -18 -122
-29 -54 -25 -158 -30 -127 -7 10 8 40 17 67 21 68 9 133 30 138 43 6 19 -100
14 -186 -7 -43 -11 -151 -34 -241 -51 -186 -36 -191 -37 -191 -55 0 -20 36
-28 73 -17 82 25 187 43 227 40 42 -3 38 -4 -45 -21 -49 -10 -135 -29 -190
-43 -55 -14 -140 -31 -190 -39 -49 -8 -107 -22 -128 -30 -20 -8 -65 -15 -100
-16 -71 -1 -138 -18 -145 -37 -9 -28 268 5 403 48 33 10 101 24 150 29 50 6
124 20 165 31 41 10 145 31 230 46 85 15 192 40 237 56 46 15 90 28 98 28 24
0 18 -55 -15 -150 -32 -92 -29 -112 16 -91 21 9 30 9 44 -1 9 -7 38 -29 64
-48 42 -31 45 -35 26 -42 -26 -9 -26 -38 0 -38 10 0 31 -5 45 -12 37 -16 52 1
36 40 -10 24 -10 34 0 50 12 18 10 24 -9 45 -41 43 -26 58 41 42 24 -6 27 -4
27 17 0 28 25 66 36 56 4 -5 2 -26 -5 -48 -21 -69 7 -79 35 -12 8 20 20 39 26
43 7 4 3 17 -12 37 -18 24 -20 34 -11 50 16 29 43 35 125 27 66 -6 77 -4 122
20 27 14 53 30 57 34 12 12 -3 40 -26 46 -12 4 -32 11 -44 17 -16 8 -51 6
-132 -6 -112 -18 -151 -15 -151 9 0 7 12 20 26 30 14 9 23 19 20 23 -3 3 -45
13 -94 22 -73 14 -87 20 -90 37 -2 11 15 99 38 195 22 96 46 220 54 276 21
145 33 160 121 147 62 -10 90 0 113 37 25 40 40 165 23 196 -6 11 -38 37 -71
57 -63 39 -72 55 -41 81 77 67 72 52 69 180 -3 132 3 123 -98 149 -36 10 -92
30 -125 45 -70 33 -198 74 -293 94 -249 54 -738 141 -937 166 -93 12 -219 30
-280 41 -170 29 -669 74 -1395 124 -124 9 -383 20 -575 25 -630 16 -1150 32
-1153 35 -1 1 -7 31 -13 66 -6 35 -14 69 -20 75 -5 6 -20 42 -33 80 -13 38
-33 88 -45 111 -29 58 -27 67 19 88 45 20 56 45 46 103 -4 30 -1 41 20 63 23
24 26 35 26 105 1 145 -39 214 -102 174 -12 -7 -12 -12 4 -29 23 -26 14 -55
-14 -46 -30 10 -100 -4 -100 -20 0 -21 30 -26 62 -10 26 13 32 13 45 0 8 -8
21 -15 29 -15 20 0 17 -27 -6 -52 -22 -24 -15 -24 -157 9 -34 8 -28 -14 10
-37 22 -14 50 -20 89 -20 52 0 87 -15 56 -24 -7 -2 -38 -12 -69 -21 -53 -17
-59 -17 -100 -1 -29 11 -67 41 -110 86 -62 66 -99 87 -99 56 0 -25 101 -114
170 -150 55 -29 150 -106 150 -122 0 -8 -44 -4 -84 8 -46 13 -76 34 -76 55 0
18 -64 17 -79 -1 -16 -19 -2 -46 36 -75 l28 -21 -40 1 c-22 0 -54 -3 -72 -6
-38 -8 -132 12 -139 30 -3 6 2 31 10 55 8 23 12 48 10 55 -3 7 5 15 20 19 40
10 32 33 -15 41 -22 4 -58 19 -81 33 l-40 27 31 6 c36 8 71 35 71 57 0 10 -6
12 -22 8 -72 -20 -133 -27 -155 -17 -13 6 -42 11 -63 11 -22 0 -40 2 -40 5 0
2 9 19 20 37 28 47 26 68 -7 68 -20 0 -40 -15 -78 -55 -28 -30 -56 -55 -63
-55 -7 0 -12 15 -12 39 0 51 -17 62 -44 29 -12 -14 -29 -35 -38 -47 -31 -38
-40 -28 -53 55 -5 36 -2 46 27 85 l34 44 61 -3 c54 -3 63 -1 73 17 13 26 6 39
-27 52 -13 5 -23 15 -21 21 7 19 159 90 203 95 22 2 63 9 91 15 80 17 106 0
287 -191 42 -45 77 -86 77 -92 0 -16 131 -72 142 -61 15 15 5 46 -17 52 -41
11 -75 43 -114 109 -22 38 -53 76 -68 86 -15 10 -42 35 -60 55 -18 20 -63 53
-101 73 -66 35 -75 37 -163 37 -92 -1 -96 -2 -194 -49z m15 -468 c14 -3 32
-11 40 -18 13 -11 125 -62 171 -78 10 -3 25 -29 34 -57 l17 -52 -48 -49 -49
-49 -83 78 c-79 75 -82 79 -76 112 4 19 11 41 17 48 13 17 3 25 -46 37 -28 7
-43 16 -45 29 -3 16 0 18 19 12 13 -4 35 -10 49 -13z m602 -332 c10 -12 24
-18 37 -14 26 7 69 -61 80 -126 5 -25 19 -93 31 -151 21 -96 22 -114 12 -211
-12 -111 -57 -260 -103 -336 -54 -88 -192 -271 -241 -320 -57 -56 -89 -66
-166 -49 -48 11 -312 165 -312 182 0 3 16 26 35 51 19 24 44 67 56 93 26 57
59 76 117 66 34 -5 50 1 142 56 58 33 129 71 158 84 32 15 81 52 127 97 62 60
75 78 75 104 0 18 -4 35 -10 38 -5 3 -51 -32 -102 -79 -102 -94 -283 -202
-319 -191 -10 4 -50 34 -87 68 -38 34 -90 81 -118 103 l-49 41 17 35 c13 28
27 39 62 51 25 9 60 27 78 40 30 23 39 25 101 20 57 -5 71 -3 88 13 21 19 21
19 -50 25 -39 3 -74 9 -78 13 -12 12 42 54 84 65 50 14 180 2 223 -20 44 -22
95 -75 109 -112 15 -38 35 -29 39 15 2 29 -3 43 -28 72 -37 42 -116 81 -182
91 -27 4 -48 11 -48 16 0 5 4 9 9 9 5 0 11 8 14 19 2 10 28 31 58 47 67 37 77
59 23 52 -32 -4 -116 -49 -224 -118 -8 -5 -33 -17 -55 -27 -22 -9 -43 -18 -46
-20 -7 -4 -29 43 -29 62 0 7 14 16 31 20 17 4 49 24 72 45 l40 38 -33 -1 c-39
-2 -50 17 -20 33 17 9 25 8 38 -3 12 -11 22 -13 34 -6 11 6 19 6 23 -1 3 -5
28 -10 56 -10 36 0 54 5 69 20 16 16 28 19 64 14 27 -4 46 -2 50 5 11 17 30
13 48 -8z m-442 -65 c0 -44 -22 -66 -66 -66 -28 0 -38 -6 -58 -38 -13 -20 -31
-43 -40 -51 -19 -16 -46 -8 -46 14 0 8 -5 24 -12 34 -15 24 -4 49 24 55 122
23 142 31 157 58 22 39 41 36 41 -6z m-1537 -76 c-6 -22 -33 -28 -33 -7 0 16
21 38 31 32 4 -3 5 -14 2 -25z m-264 -100 c2 -48 36 -121 61 -127 11 -3 20 -9
20 -14 0 -12 -69 17 -92 38 -37 33 -42 126 -10 178 8 13 20 -29 21 -75z m443
-31 c48 -57 109 -85 164 -76 20 3 176 9 348 12 171 3 324 8 340 11 16 4 65 24
110 45 44 22 86 39 93 39 14 0 43 -50 43 -74 0 -21 -146 -144 -200 -169 -91
-42 -360 -31 -724 28 -49 8 -107 15 -129 15 l-39 0 16 25 c23 35 20 78 -7 103
-25 24 -98 52 -131 52 -26 -1 -88 -55 -110 -95 -15 -30 -15 -30 -16 42 0 82
-6 77 105 91 80 11 89 7 137 -49z m1328 47 c0 -3 -14 -27 -32 -55 -19 -31 -52
-65 -84 -86 -29 -19 -66 -49 -83 -65 -29 -30 -33 -37 -46 -94 -8 -37 -23 -23
-36 34 -12 53 -10 56 138 166 61 46 114 88 118 93 6 11 25 15 25 7z m-1652
-60 c-20 -45 -57 -41 -58 7 0 13 8 17 35 17 33 0 34 -1 23 -24z m262 -71 c0
-26 -14 -33 -25 -15 -9 14 1 40 15 40 5 0 10 -11 10 -25z m-385 -60 c30 -20
55 -41 55 -47 0 -8 -126 -10 -457 -7 -252 2 -710 3 -1018 2 -308 -2 -758 -3
-1000 -3 -242 -1 -579 -5 -750 -10 -353 -9 -381 -14 -482 -87 -35 -24 -63 -40
-63 -35 0 11 114 120 158 151 l32 22 718 9 c394 5 1160 9 1702 10 821 0 989 3
1010 14 35 20 34 20 95 -19z m205 -31 c0 -16 -37 -37 -50 -29 -14 9 -12 49 2
63 9 9 16 8 30 -5 10 -9 18 -22 18 -29z m119 23 c6 -8 8 -16 5 -19 -8 -9 -74
14 -68 24 8 13 50 9 63 -5z m3526 -48 c94 -5 251 -16 350 -24 99 -8 243 -19
320 -24 477 -36 576 -44 725 -61 309 -37 335 -40 435 -50 55 -6 136 -20 180
-30 44 -10 136 -26 205 -34 69 -9 208 -32 310 -50 102 -19 209 -37 239 -41 30
-3 62 -10 70 -15 9 -4 73 -20 143 -34 69 -14 143 -32 164 -40 22 -8 65 -20 97
-25 72 -13 168 -55 197 -86 20 -22 22 -30 15 -89 -7 -72 -26 -96 -109 -138
-38 -19 -59 -32 -170 -108 -52 -35 -61 -36 -101 -10 -29 20 -190 100 -243 122
-79 31 -238 64 -364 74 l-78 6 0 59 c0 158 -114 228 -530 324 -107 25 -267 55
-354 66 -88 11 -162 22 -166 24 -13 8 -315 35 -565 50 -143 9 -298 20 -345 25
-257 28 -686 47 -1304 60 -253 5 -464 14 -469 19 -5 5 -6 18 -3 29 7 19 15 20
594 15 323 -2 664 -8 757 -14z m-4930 -54 c407 -3 954 -5 1215 -6 412 -1 492
-3 600 -20 269 -40 533 -45 613 -12 25 11 41 13 48 6 12 -12 3 -39 -15 -46
-16 -6 -738 -7 -2201 -2 l-1110 4 -3 31 c-6 56 2 63 61 56 28 -4 385 -9 792
-11z m-1505 -19 c0 -8 -25 -24 -57 -36 -77 -29 -241 -37 -438 -20 -218 18
-296 0 -400 -90 -44 -38 -50 -40 -112 -40 l-66 0 -81 -78 c-98 -93 -218 -197
-246 -212 -25 -14 -26 -42 0 -65 11 -10 29 -43 41 -74 46 -123 94 -172 184
-186 227 -34 394 -74 415 -100 18 -22 9 -26 -31 -15 -18 5 -99 21 -179 36
-197 35 -657 115 -697 121 -18 3 -33 10 -33 15 0 6 30 43 67 82 75 80 88 102
98 160 7 43 10 47 170 186 117 103 179 146 225 160 20 5 60 30 89 55 109 93
128 96 626 105 220 3 406 7 413 8 6 1 12 -4 12 -12z m578 -3 c-2 -10 -11 -19
-21 -21 -16 -3 -17 -1 -7 17 13 25 33 28 28 4z m-84 -15 c17 -85 10 -161 -34
-343 -6 -22 -15 -66 -20 -98 -13 -70 -48 -167 -61 -167 -15 0 -10 45 10 91 33
74 59 198 71 329 6 69 13 132 16 141 2 9 -4 27 -15 40 l-19 24 -13 -27 c-14
-32 -26 -35 -177 -42 -114 -6 -132 -2 -132 24 0 45 22 50 201 50 167 0 169 0
173 -22z m3707 -45 c46 -49 69 -83 69 -104 0 -11 -44 -47 -112 -94 -62 -42
-138 -94 -168 -115 -30 -21 -77 -50 -105 -63 -97 -48 -134 -51 -550 -52 -274
0 -396 -3 -410 -12 -28 -15 -140 -14 -200 3 -27 7 -61 15 -74 16 -33 4 -37 22
-7 36 15 7 27 23 31 44 9 38 47 78 88 93 24 9 38 6 87 -18 32 -16 73 -30 91
-30 32 -2 34 0 32 28 l-2 30 22 -27 c28 -35 57 -36 198 -7 146 30 150 32 142
69 -4 24 0 36 17 55 34 37 54 33 45 -7 -13 -64 -14 -63 35 -60 61 4 105 19
140 49 25 21 33 23 45 13 11 -9 39 -11 97 -7 67 6 98 14 173 49 49 23 101 52
115 64 42 37 123 84 145 84 11 0 37 -17 56 -37z m1894 16 c88 -5 243 -17 345
-25 102 -8 264 -19 360 -24 96 -6 265 -17 375 -26 110 -8 259 -19 330 -24 457
-33 1120 -166 1120 -226 0 -19 -46 -14 -136 15 -52 17 -166 42 -253 56 -87 14
-162 28 -166 30 -9 5 -387 57 -420 57 -14 0 -95 7 -180 14 -369 33 -522 44
-795 59 -159 8 -364 20 -455 26 -147 9 -566 22 -997 31 -110 2 -153 6 -153 15
0 20 22 28 95 34 100 9 741 1 930 -12z m-6045 -20 c0 -5 -29 -24 -65 -40 -91
-43 -230 -56 -421 -39 -214 20 -292 6 -409 -70 -66 -43 -121 -62 -113 -40 2 8
30 30 60 49 31 20 74 50 94 66 37 30 39 30 158 30 67 -1 198 -3 291 -5 175 -4
291 11 355 45 30 17 50 19 50 4z m513 -211 c-3 -95 -10 -182 -16 -193 -16 -32
-89 -126 -94 -121 -2 2 11 55 31 117 19 63 42 171 52 242 10 70 22 127 26 127
4 0 5 -78 1 -172z m1687 150 c0 -13 -8 -97 -17 -188 -9 -91 -16 -214 -15 -275
3 -160 -3 -192 -40 -211 -16 -8 -32 -14 -34 -12 -13 14 4 678 18 696 6 6 28
12 49 12 34 0 39 -3 39 -22z m294 16 c13 -5 14 -23 9 -119 -5 -98 -4 -118 11
-140 17 -26 17 -28 -8 -54 -17 -18 -28 -43 -32 -76 -7 -50 -19 -75 -35 -75
-13 0 -11 54 3 68 9 9 8 22 -3 54 -25 77 -10 294 23 336 12 14 12 14 32 6z
m-646 -17 c6 -7 9 -29 7 -48 -11 -76 -35 -644 -29 -676 6 -29 9 -33 20 -21 16
16 30 113 38 273 4 61 12 161 18 224 11 104 14 114 36 124 18 8 33 7 64 -4 22
-8 40 -18 40 -24 0 -5 -20 -15 -44 -21 -56 -14 -57 -37 -3 -44 l40 -5 3 -52 3
-53 -60 0 c-56 0 -84 -11 -61 -25 5 -3 32 -9 60 -12 28 -3 53 -10 56 -14 3 -5
0 -77 -7 -161 -10 -136 -14 -155 -33 -170 -19 -15 -20 -20 -7 -39 12 -21 11
-25 -13 -46 -15 -13 -36 -23 -47 -23 -10 0 -19 -4 -19 -10 0 -19 -23 -10 -66
26 -47 38 -59 41 -116 30 -21 -4 -38 -3 -38 1 0 4 9 76 20 158 11 83 25 247
31 365 6 118 15 225 20 238 6 17 17 22 43 22 18 0 38 -6 44 -13z m-945 -27
c-5 -75 -36 -346 -40 -350 -2 -2 -10 0 -17 5 -60 44 -73 49 -140 54 l-71 6 3
70 c4 80 10 91 55 98 53 7 57 2 57 -79 0 -60 3 -74 15 -74 17 0 35 39 35 76 0
17 8 27 25 34 14 5 25 13 25 18 0 4 -11 23 -25 42 -48 66 -21 135 50 128 25
-3 30 -7 28 -28z m327 13 c-1 -10 -7 -29 -15 -43 -9 -17 -12 -45 -8 -90 3 -44
-6 -151 -31 -335 -20 -148 -43 -335 -51 -415 -9 -79 -18 -146 -20 -148 -2 -2
-13 -1 -24 3 -28 9 -28 63 0 99 16 21 19 34 14 70 -4 25 -1 68 6 100 14 66 5
85 -31 66 -23 -12 -23 -12 -16 31 3 24 13 105 21 179 8 75 16 142 19 150 3 8
10 74 16 145 6 72 14 147 17 168 6 37 6 37 54 37 40 0 49 -3 49 -17z m295 7
c3 -5 3 -43 -1 -85 -6 -70 -8 -75 -31 -75 -16 0 -27 -8 -33 -26 -13 -32 -6
-44 26 -44 29 0 29 6 9 -195 -8 -82 -24 -253 -35 -380 -11 -126 -23 -240 -26
-252 -4 -20 -11 -23 -49 -23 l-45 0 0 61 c0 66 13 101 34 93 19 -7 39 22 31
46 -4 11 -15 20 -27 20 -19 0 -20 4 -14 63 4 34 11 94 17 132 31 230 40 328
44 484 3 95 8 177 11 182 7 12 81 11 89 -1z m-1301 -13 c16 -12 17 -25 10
-145 l-7 -133 -40 3 c-34 3 -42 7 -50 31 -8 23 -5 34 12 58 25 33 27 64 6 73
-18 6 -21 77 -5 107 12 22 48 25 74 6z m2656 -2 c9 -11 9 -27 0 -70 -12 -59
-30 -76 -59 -58 -17 11 -17 40 0 106 10 40 36 50 59 22z m2535 -15 c3 -5 3
-20 -1 -34 -4 -19 -12 -24 -32 -23 -22 2 -28 -3 -30 -23 -4 -27 -19 -50 -33
-50 -5 0 -9 27 -9 60 0 46 4 61 18 69 22 13 79 14 87 1z m290 0 c22 -9 26 -14
21 -38 -4 -15 0 -162 9 -328 20 -396 22 -768 5 -789 -7 -9 -29 -15 -51 -15
-35 0 -38 2 -43 33 -3 17 -8 224 -11 460 l-5 427 24 0 c16 0 27 7 31 20 8 26
-3 42 -25 35 -12 -4 -19 1 -24 17 -9 36 -7 134 4 162 10 28 24 31 65 16z m329
-6 c13 -5 16 -22 16 -79 0 -59 -4 -75 -20 -90 -25 -23 -25 -30 0 -55 18 -18
22 -41 30 -178 5 -86 12 -188 16 -226 7 -67 6 -70 -20 -91 l-28 -22 29 -34
c27 -31 30 -44 41 -159 20 -204 19 -210 -43 -210 -31 0 -38 37 -39 230 -1 85
-6 162 -11 170 -12 20 -34 376 -34 573 -1 170 -4 158 46 176 1 1 8 -2 17 -5z
m-5449 -212 c-4 -33 -10 -50 -17 -46 -13 8 -5 225 9 246 10 17 16 -129 8 -200z
m2543 153 c2 -24 -3 -48 -12 -60 -18 -25 -30 -14 -45 39 -12 46 0 69 33 64 17
-2 22 -11 24 -43z m3222 -45 c0 -90 0 -90 -25 -90 -15 0 -28 -7 -32 -16 -9
-24 11 -49 36 -47 16 2 21 -3 21 -20 0 -52 20 -297 29 -352 6 -33 12 -107 15
-165 5 -102 5 -106 -17 -115 -32 -14 -29 -49 5 -53 23 -3 28 -9 33 -46 11 -68
5 -81 -36 -84 -27 -2 -38 1 -43 14 -16 42 -75 1017 -63 1048 4 10 19 16 42 16
l35 0 0 -90z m-6852 74 c33 -9 31 -68 -3 -90 -30 -20 -32 -49 -5 -66 19 -12
20 -23 19 -228 0 -118 -6 -251 -13 -295 l-12 -80 -34 3 c-45 4 -63 22 -55 55
6 22 11 25 40 20 18 -3 35 -1 38 3 2 5 6 97 8 204 4 173 2 195 -12 198 -22 4
-29 -36 -29 -167 0 -120 -8 -181 -23 -181 -12 0 0 571 14 606 9 24 26 29 67
18z m359 -86 c-4 -51 -2 -158 3 -238 l10 -144 -31 -33 c-28 -28 -34 -31 -51
-19 -18 13 -19 28 -18 257 0 159 4 247 12 256 6 7 26 13 46 13 l35 0 -6 -92z
m5218 82 c3 -5 5 -200 4 -432 -3 -530 -2 -499 -13 -488 -32 32 -69 -7 -64 -68
3 -36 4 -37 41 -36 l37 1 -6 -66 c-9 -89 -16 -101 -63 -101 -23 0 -40 5 -42
13 -9 31 7 972 16 967 6 -3 10 -116 11 -303 2 -299 5 -357 23 -357 19 0 22 65
18 355 -5 324 -11 378 -43 383 -37 5 -39 110 -2 134 18 11 76 10 83 -2z m1646
-185 c-1 -127 3 -228 14 -305 37 -282 64 -467 70 -487 6 -18 2 -23 -19 -29
-35 -8 -72 2 -81 23 -4 10 -11 59 -16 108 -18 175 -32 227 -60 210 -13 -9 -9
-112 12 -258 16 -107 12 -114 -81 -119 -61 -3 -65 -1 -76 22 -7 14 -20 86 -28
160 -9 74 -21 173 -26 220 -6 47 -13 139 -15 205 -3 66 -10 159 -16 207 -6 48
-9 94 -5 103 5 13 20 15 88 13 77 -3 83 -5 86 -25 3 -17 -2 -23 -17 -23 -11 0
-32 -5 -48 -11 -22 -8 -24 -12 -13 -19 8 -6 25 -10 36 -10 12 0 27 -6 33 -14
7 -8 19 -95 27 -198 15 -176 28 -235 49 -230 6 1 12 19 13 39 4 35 -12 235
-24 311 -4 29 -2 32 20 32 16 0 27 7 31 20 9 28 -3 43 -31 37 l-24 -4 0 102
c0 56 3 105 7 109 4 4 27 6 52 4 l44 -3 -2 -190z m-4036 146 c39 -6 46 -9 30
-16 -11 -4 -46 -19 -78 -33 -31 -14 -60 -22 -64 -18 -12 12 -6 68 8 77 8 5 23
6 34 3 11 -3 43 -9 70 -13z m4337 -86 c-1 -55 3 -129 8 -165 6 -36 14 -110 19
-165 5 -55 19 -145 30 -200 12 -55 28 -140 36 -190 16 -99 13 -107 -40 -103
-28 3 -30 5 -28 45 1 27 9 49 22 62 12 12 21 31 21 42 0 18 -4 21 -29 16 -29
-6 -30 -6 -44 61 -9 37 -18 87 -22 112 -8 50 -21 80 -35 80 -19 0 -22 -51 -7
-122 9 -40 21 -126 28 -192 10 -97 9 -120 -2 -126 -21 -13 -110 -23 -119 -14
-5 5 -16 74 -26 153 -18 141 -18 143 1 158 20 14 19 15 -7 34 -35 25 -46 69
-48 182 l-1 87 50 0 c55 0 77 -15 87 -58 17 -74 21 -86 31 -89 25 -9 24 35 -2
195 -6 31 -4 32 18 27 27 -7 42 14 31 47 -4 13 -13 18 -32 16 -24 -3 -27 1
-34 42 -3 25 -7 73 -7 108 l-1 63 52 -3 52 -3 -2 -100z m-4668 79 c9 -3 16
-16 16 -29 0 -13 -7 -26 -16 -29 -24 -9 -73 -7 -95 4 -21 12 -26 46 -6 53 18
8 83 8 101 1z m5004 -6 c7 -7 12 -42 12 -87 0 -129 26 -317 75 -544 2 -12 -5
-21 -22 -28 -30 -11 -28 -43 4 -47 22 -3 33 -27 33 -78 0 -24 -5 -33 -22 -38
-42 -11 -46 -7 -58 67 -23 132 -72 248 -96 225 -6 -6 20 -156 42 -242 8 -32
11 -62 7 -66 -10 -9 -95 -30 -122 -30 -22 0 -22 0 -46 115 -9 44 -23 96 -30
115 -12 33 -18 81 -16 123 1 10 13 22 27 27 30 12 23 30 -11 30 -12 0 -26 8
-29 17 -10 24 -36 239 -36 291 l0 42 71 0 c62 0 70 -2 67 -17 -2 -14 -16 -19
-58 -23 -30 -3 -54 -9 -53 -15 1 -5 27 -14 57 -19 43 -7 56 -14 60 -30 10 -36
7 -91 -6 -104 -9 -9 -7 -17 9 -34 25 -27 40 -102 23 -113 -17 -11 8 -35 36
-35 30 0 30 11 3 167 -11 65 -23 160 -26 211 -5 80 -4 95 12 112 20 22 74 27
93 8z m-5997 -17 c19 -16 21 -21 9 -25 -80 -29 -77 -26 -56 -42 11 -8 25 -14
32 -14 18 0 27 -36 14 -60 -6 -11 -17 -20 -24 -20 -24 0 -28 -31 -6 -37 26 -7
26 -19 -6 -328 -13 -137 -28 -285 -31 -329 l-6 -78 -41 6 c-22 4 -41 8 -42 9
-4 5 17 206 26 250 12 56 7 70 -22 61 -25 -7 -25 -9 17 251 14 88 25 185 26
215 1 104 11 143 39 151 40 11 46 10 71 -10z m337 -3 c12 -10 11 -14 -4 -25
-10 -7 -27 -13 -39 -13 -12 0 -30 -7 -41 -15 -16 -13 -17 -16 -4 -25 8 -5 30
-10 49 -10 26 0 32 -3 27 -16 -3 -9 -6 -45 -6 -81 l0 -65 -30 6 c-16 3 -44 9
-61 12 l-32 6 6 111 c5 91 9 114 24 125 20 15 88 9 111 -10z m-2569 5 c0 -5
-36 -39 -80 -78 -149 -130 -322 -302 -315 -314 12 -19 55 11 185 131 146 134
229 200 242 192 14 -9 4 -19 -84 -86 -110 -84 -255 -224 -278 -270 -11 -21
-24 -38 -29 -38 -18 0 -78 60 -93 93 -33 71 -37 64 104 195 72 67 138 122 147
122 9 0 -40 -54 -110 -122 -128 -125 -162 -168 -134 -168 8 0 72 55 143 123
113 107 157 142 263 210 28 18 40 21 39 10z m1931 -8 c0 -12 -13 -15 -60 -15
-47 0 -60 3 -60 15 0 12 13 15 60 15 47 0 60 -3 60 -15z m6620 -74 c0 -36 7
-93 15 -126 8 -33 14 -73 15 -90 0 -16 16 -95 35 -175 39 -161 43 -211 19
-235 -24 -24 -46 -15 -69 28 l-20 37 27 23 c21 16 25 26 18 37 -8 13 -13 13
-31 2 -11 -7 -23 -11 -27 -8 -22 23 -103 560 -88 585 3 4 28 4 56 -2 l50 -10
0 -66z m-7600 54 c17 -21 9 -27 -56 -40 -30 -6 -55 -15 -55 -20 0 -6 25 -13
54 -16 91 -10 96 3 -69 -197 -36 -44 -44 -22 -44 129 0 135 1 140 23 149 38
15 133 12 147 -5z m264 -25 c-2 -48 -23 -120 -35 -120 -15 0 -29 47 -29 99 0
55 5 63 40 59 22 -3 25 -8 24 -38z m4874 34 c27 -5 30 -9 22 -25 -6 -10 -10
-58 -10 -108 0 -84 -1 -91 -20 -91 -19 0 -20 7 -20 93 0 97 -8 128 -27 105
-13 -16 -24 -676 -12 -684 16 -10 29 47 30 129 0 111 10 161 32 165 13 3 17
-4 18 -30 1 -25 1 -164 -1 -249 0 -4 -21 -32 -47 -63 -40 -47 -49 -53 -55 -39
-11 28 -9 748 2 777 10 27 29 32 88 20z m266 -36 c3 -18 7 -124 8 -235 3 -209
9 -241 42 -214 8 7 16 21 18 32 5 31 22 27 29 -6 4 -16 7 -157 8 -311 l1 -282
-25 -6 c-64 -16 -84 29 -90 208 -19 528 -27 817 -22 830 10 26 26 18 31 -16z
m-5796 12 c19 0 22 -5 22 -35 0 -39 -5 -41 -94 -29 -42 6 -46 9 -46 35 0 33
13 40 60 34 19 -3 45 -5 58 -5z m5892 -6 c0 -9 -8 -23 -17 -30 -13 -9 -20 -32
-24 -86 l-6 -73 -1 96 c-1 53 1 99 5 102 13 14 43 7 43 -9z m328 4 c5 -7 12
-67 13 -133 4 -118 4 -120 -19 -123 -26 -4 -20 -22 8 -22 16 0 19 -11 25 -67
12 -142 17 -173 25 -178 5 -3 4 -21 -1 -40 -7 -23 -6 -83 1 -172 5 -76 10
-166 10 -199 l0 -62 -71 -7 c-39 -4 -75 -3 -79 1 -11 12 -33 399 -25 442 l6
35 50 -6 c56 -7 79 -1 79 19 0 18 -40 34 -85 34 -19 0 -37 5 -41 11 -8 14 -36
449 -29 466 6 17 119 17 133 1z m2050 0 c7 -7 12 -43 13 -87 0 -42 4 -96 9
-121 4 -25 13 -74 19 -110 7 -36 23 -105 37 -154 17 -59 22 -92 15 -99 -9 -9
-174 -67 -192 -67 -20 0 -119 406 -119 489 l0 61 33 0 c18 0 43 -7 55 -16 30
-20 26 -58 -5 -62 -13 -2 -23 -7 -23 -10 0 -4 10 -12 23 -17 17 -8 26 -26 40
-90 10 -44 29 -114 43 -155 14 -41 28 -87 31 -102 3 -15 12 -33 21 -40 13 -12
14 -7 8 42 -4 30 -21 109 -38 175 -30 117 -50 320 -35 360 7 18 48 20 65 3z
m-1730 -35 c3 -32 2 -33 -32 -33 -45 0 -47 -14 -4 -26 28 -8 34 -16 40 -49 4
-22 7 -75 7 -118 1 -85 4 -82 -70 -91 -59 -7 -58 -9 -65 197 l-5 158 63 -3 63
-3 3 -32z m-6863 -28 c0 -43 -3 -50 -21 -53 -19 -3 -22 -12 -29 -74 -8 -86 4
-376 16 -384 12 -7 12 -54 0 -54 -24 0 -29 42 -36 280 -4 140 -9 259 -12 263
-3 4 -11 3 -19 -4 -11 -9 -14 -53 -15 -218 -1 -158 -4 -193 -10 -151 -5 30 -6
141 -3 247 7 214 2 202 84 200 l45 -2 0 -50z m1680 -15 l0 -55 -38 -3 c-29 -3
-37 -7 -35 -20 2 -9 14 -19 28 -22 22 -5 25 -12 28 -60 4 -76 -16 -185 -38
-205 -12 -11 -20 -38 -25 -83 -8 -82 -53 -304 -63 -314 -4 -4 -13 -4 -19 0
-10 6 -8 20 6 57 34 91 64 386 41 400 -19 12 -40 -23 -40 -65 0 -35 -41 -296
-55 -353 -4 -16 -11 -25 -16 -20 -4 4 1 53 11 108 24 129 65 396 85 554 9 69
19 129 21 133 3 5 29 8 57 6 l52 -3 0 -55z m1317 -80 c-2 -74 -6 -143 -8 -152
-6 -21 -85 -78 -107 -78 -12 0 -14 11 -10 58 3 31 5 69 4 85 -5 121 -5 195 1
210 7 15 18 17 65 15 l58 -3 -3 -135z m2987 93 c15 -62 21 -231 12 -337 -10
-103 -7 -126 14 -126 17 0 25 23 25 71 0 22 4 38 9 35 4 -3 12 -89 16 -192 l7
-187 -28 -22 c-31 -25 -28 -55 6 -55 18 0 20 -6 20 -80 l0 -80 -39 0 c-29 0
-41 5 -45 18 -2 9 -5 80 -5 157 0 77 -4 250 -10 385 -13 307 -14 450 -1 450 5
0 13 -17 19 -37z m1529 15 c2 -13 -3 -18 -17 -18 -30 0 -26 -28 5 -40 23 -9
25 -14 22 -67 l-3 -57 -50 3 c-27 1 -53 6 -57 10 -5 4 -11 49 -15 100 l-6 92
59 -3 c47 -2 59 -7 62 -20z m1392 -17 c22 -16 27 -33 42 -125 9 -59 19 -114
22 -122 8 -21 25 -17 35 10 6 15 20 25 40 29 17 4 31 11 31 17 0 11 -7 14 -52
24 -23 5 -28 12 -28 35 0 28 0 28 53 23 64 -6 74 -13 88 -65 13 -49 7 -56 -79
-87 -35 -13 -82 -38 -104 -57 -22 -18 -43 -33 -47 -33 -19 0 -81 -73 -81 -95
0 -20 -7 -26 -41 -35 -23 -6 -43 -9 -46 -6 -3 3 -18 55 -35 117 -16 61 -33
120 -38 130 -6 10 -10 52 -10 95 l0 77 53 -7 c28 -4 55 -10 59 -14 4 -4 16
-48 27 -99 21 -99 35 -133 53 -133 12 0 9 26 -17 165 -16 87 -19 167 -8 179
10 10 54 -2 83 -23z m-742 0 c24 -15 9 -45 -26 -56 -37 -10 -37 -28 -1 -33 13
-2 27 -7 31 -10 3 -4 14 -49 23 -101 8 -52 32 -158 52 -235 52 -206 52 -193 9
-211 -73 -31 -97 -18 -111 58 -7 34 -5 39 14 44 29 7 23 35 -9 43 -28 7 -28 7
-74 320 -18 117 -22 168 -14 177 12 15 86 17 106 4z m-7834 -47 c11 -10 16
-34 16 -70 0 -30 -2 -54 -4 -54 -2 0 -23 9 -47 20 -24 11 -54 20 -66 20 -20 0
-23 5 -23 44 0 26 5 46 13 49 28 12 96 6 111 -9z m-526 -18 c-2 -8 -27 -32
-56 -53 -28 -22 -101 -86 -161 -142 -72 -66 -112 -97 -117 -90 -13 22 288 299
324 299 8 0 12 -6 10 -14z m9435 -61 c26 -24 47 -53 47 -65 0 -24 -41 -37 -79
-24 -23 8 -27 17 -32 64 -9 86 -3 88 64 25z m-8307 10 c3 -8 -6 -49 -20 -91
-23 -66 -25 -79 -13 -102 10 -21 19 -27 42 -25 61 3 108 18 119 38 23 40 95
141 114 158 16 15 35 17 112 15 60 -2 95 -7 97 -15 4 -11 -139 -204 -323 -438
-102 -130 -90 -126 -292 -95 -75 11 -186 28 -247 36 -139 20 -167 27 -165 39
3 17 121 164 204 254 43 47 101 114 128 148 56 71 93 88 201 92 25 1 40 -4 43
-14z m-1963 -23 c-11 -29 -31 -55 -98 -123 -99 -102 -88 -144 50 -183 41 -12
277 -52 415 -71 43 -6 363 -58 805 -130 456 -75 636 -101 939 -135 338 -39
481 -57 586 -75 47 -8 146 -21 220 -30 170 -19 200 -24 200 -34 0 -10 -128
-100 -177 -125 -26 -13 -41 -14 -85 -6 -29 6 -115 17 -190 25 -76 8 -197 24
-270 36 -73 11 -167 25 -208 29 -111 13 -387 59 -450 77 -30 8 -93 14 -140 14
-85 0 -355 41 -625 95 -203 40 -238 46 -268 40 -15 -3 -47 -1 -70 4 -55 12
-157 30 -457 81 -135 22 -274 50 -310 61 -36 11 -94 21 -130 22 -62 1 -65 2
-68 27 -5 40 146 253 275 387 40 43 69 50 56 14z m5491 -1 c12 -13 15 -27 11
-41 -6 -20 -5 -21 26 -15 l32 7 -6 -62 c-4 -34 -23 -108 -42 -164 -48 -135
-57 -187 -39 -206 26 -27 47 1 66 85 27 116 47 131 67 51 8 -33 19 -49 45 -64
53 -32 65 -13 28 44 -18 26 -32 59 -32 73 0 14 -5 42 -10 62 -6 20 -14 70 -19
110 -11 85 -3 102 60 120 36 11 38 11 86 -34 26 -25 78 -74 116 -108 37 -35
67 -71 67 -81 0 -37 -85 -178 -107 -178 -7 0 -24 17 -38 38 -35 53 -105 103
-105 75 0 -5 23 -42 50 -83 27 -41 50 -80 50 -86 0 -16 -70 -60 -116 -73 -56
-16 -193 -14 -259 4 -31 8 -105 19 -163 25 -144 14 -166 18 -186 33 -19 14
-20 10 39 266 25 107 61 128 194 112 105 -13 125 -24 115 -59 -9 -34 -10 -139
-1 -149 4 -4 14 0 23 9 16 16 49 212 39 228 -3 5 -30 12 -60 15 -30 4 -55 11
-55 16 0 8 76 47 96 48 6 1 19 -8 28 -18z m957 -371 c-7 -80 -16 -200 -21
-268 -11 -138 -3 -177 45 -208 24 -15 29 -16 65 -1 38 15 40 14 40 -4 0 -24
-28 -31 -105 -27 l-60 3 -3 240 c-3 276 11 562 30 620 12 38 13 34 16 -85 2
-69 -1 -190 -7 -270z m-5611 347 c0 -7 -13 -23 -29 -35 -17 -12 -71 -58 -121
-102 -50 -44 -93 -80 -95 -80 -3 0 -5 7 -5 16 0 17 49 64 161 154 78 62 89 68
89 47z m4157 -7 c82 -13 119 -28 106 -41 -6 -6 -86 -2 -232 11 -287 27 -353
16 -401 -63 -10 -15 -86 -102 -170 -193 -154 -166 -177 -182 -163 -109 3 16
10 39 16 50 20 40 160 205 205 242 26 21 54 45 63 54 45 45 410 76 576 49z
m-1662 -70 c-1 -88 -25 -475 -34 -524 -4 -25 -15 -46 -31 -58 -29 -21 -89 -33
-107 -21 -12 8 6 241 42 533 8 69 15 129 15 133 0 5 26 7 58 5 l57 -3 0 -65z
m-2017 -142 c-2 -150 -6 -202 -15 -206 -10 -3 -13 42 -13 202 0 178 2 206 15
206 13 0 15 -27 13 -202z m5582 160 c0 -48 -12 -74 -29 -64 -12 8 -15 88 -4
99 19 20 33 5 33 -35z m-4516 -95 c-259 -350 -304 -405 -304 -378 0 6 170 235
209 281 14 17 59 74 100 127 41 54 76 95 79 93 2 -3 -35 -58 -84 -123z m1896
113 c0 -8 -28 -34 -62 -59 -35 -25 -111 -85 -170 -133 -58 -49 -131 -104 -161
-122 -48 -29 -58 -32 -76 -21 -25 16 -10 39 25 39 13 0 24 6 24 13 0 25 144
141 263 210 17 10 49 34 71 53 41 35 86 45 86 20z m-2891 -128 c-1 -57 -4
-114 -8 -128 -7 -23 -8 -23 -12 10 -7 58 2 220 12 220 5 0 9 -45 8 -102z
m3540 72 c97 -11 105 -19 92 -101 -29 -182 -32 -209 -27 -218 11 -17 -5 -60
-25 -66 -23 -8 -108 30 -204 90 -74 46 -113 60 -131 48 -7 -5 -25 -37 -41 -73
-56 -123 -134 -198 -309 -299 -88 -51 -121 -58 -164 -36 -30 15 -35 15 -73 0
-41 -16 -107 -14 -107 4 0 11 56 60 101 89 18 12 70 61 114 109 44 47 118 128
165 178 47 51 126 138 175 194 l90 103 135 -7 c74 -4 168 -10 209 -15z m-4154
-65 c-42 -41 -81 -75 -86 -75 -28 0 14 56 83 111 82 65 84 44 3 -36z m9710 50
c33 -8 80 -15 105 -15 59 -1 153 -23 158 -38 2 -6 -11 -18 -28 -27 -71 -37 5
-51 108 -20 44 14 47 13 126 -22 102 -46 106 -50 79 -72 -38 -32 -586 -203
-756 -237 -37 -8 -76 -18 -87 -24 -10 -6 -59 -19 -107 -30 -48 -11 -122 -29
-163 -40 -86 -22 -250 -55 -348 -70 -37 -6 -110 -19 -162 -30 -221 -46 -544
-104 -865 -155 -88 -14 -198 -32 -245 -40 -47 -8 -116 -17 -155 -20 -38 -4
-119 -13 -180 -20 -307 -39 -1046 -87 -1305 -85 -85 1 -216 -2 -290 -6 -176
-10 -319 -9 -875 4 -657 16 -1054 31 -1098 41 -21 5 -54 7 -75 4 -20 -2 -118
3 -217 12 -99 8 -274 22 -389 31 -211 15 -290 26 -313 46 -10 8 -20 8 -38 -2
-24 -13 -91 -8 -106 7 -4 4 28 34 72 65 74 52 83 56 110 46 19 -6 65 -8 122
-3 131 9 138 9 387 -15 124 -12 331 -25 462 -29 174 -5 241 -11 252 -21 14
-11 21 -11 41 0 15 8 36 10 57 6 35 -8 377 -33 568 -42 236 -11 1383 -8 1465
4 44 7 195 19 335 27 309 18 383 24 480 36 41 5 128 14 194 20 65 5 128 14
140 19 12 4 83 13 157 20 74 6 193 20 264 30 72 11 188 27 260 35 71 9 159 22
195 30 36 7 94 17 130 20 93 9 555 98 755 145 94 22 224 52 290 66 66 14 174
42 240 61 66 19 162 46 213 59 101 27 204 72 210 92 6 18 -71 15 -148 -7 -36
-11 -110 -33 -165 -49 -141 -43 -393 -107 -537 -137 -68 -14 -143 -32 -168
-40 -25 -7 -85 -21 -135 -30 -49 -9 -98 -18 -107 -21 -10 -3 -18 -2 -18 3 0 8
34 19 210 67 283 77 778 277 767 310 -7 22 -41 17 -106 -17 -85 -44 -119 -53
-127 -32 -13 34 44 70 145 90 87 17 143 17 216 0z m-9250 -294 c-3 -9 -9 -11
-15 -5 -5 5 -5 37 0 79 5 39 10 102 12 140 1 39 4 9 5 -64 2 -74 1 -142 -2
-150z m-386 207 c-12 -22 -41 -38 -71 -38 -21 0 -19 4 21 42 33 31 45 37 51
27 5 -7 4 -21 -1 -31z m7050 33 c14 -9 60 -391 61 -507 0 -61 0 -62 -31 -68
-17 -3 -44 -6 -59 -6 -26 0 -29 4 -35 48 -12 90 -50 533 -46 538 8 8 96 4 110
-5z m-1729 -58 c-1 -51 -35 -127 -97 -218 -76 -111 -142 -182 -174 -188 -13
-3 -47 -9 -75 -14 -29 -5 -154 -6 -290 -1 -274 8 -407 29 -449 68 -25 23 -32
54 -17 77 9 14 176 -7 317 -39 56 -13 128 -21 190 -22 98 -1 102 0 193 43 51
23 99 41 106 38 7 -3 21 -21 30 -41 9 -20 21 -36 26 -36 21 0 9 41 -22 76
l-32 37 49 93 c28 52 53 94 57 94 5 0 20 14 35 30 24 27 32 30 90 30 62 0 63
0 63 -27z m376 -242 c-4 -113 -9 -207 -12 -210 -14 -14 -18 27 -17 172 2 199
11 289 26 262 6 -12 8 -89 3 -224z m4897 215 c8 -21 -3 -56 -19 -56 -19 0 -27
18 -20 46 7 26 31 32 39 10z m-135 -68 c15 -15 16 -48 1 -48 -29 0 -73 36 -63
52 8 12 48 10 62 -4z m-7238 -5 c0 -28 -106 -149 -161 -185 -51 -33 -66 -69
-33 -82 23 -9 52 10 126 82 l67 66 11 -28 c5 -15 10 -31 10 -36 0 -21 -67 -83
-129 -119 -76 -45 -98 -66 -103 -101 -3 -27 -37 -37 -84 -26 -31 8 -30 26 1
56 31 29 49 82 42 126 -5 32 -2 38 60 91 37 32 92 82 122 110 54 51 71 62 71
46z m2204 -90 c12 -107 16 -433 7 -433 -5 0 -12 42 -16 93 -3 50 -11 119 -16
152 -5 33 -9 94 -9 135 0 131 23 165 34 53z m-3567 -30 c-5 -40 -14 -73 -18
-73 -11 0 -11 4 2 76 10 56 18 79 24 72 1 -2 -2 -36 -8 -75z m-340 35 c-2 -7
-10 -46 -17 -85 -15 -85 -36 -100 -27 -20 8 65 25 117 39 117 6 0 8 -6 5 -12z
m1101 -52 c12 -41 12 -50 -2 -72 -30 -45 -65 -20 -46 32 6 14 10 41 10 60 0
50 22 39 38 -20z m3491 17 c0 -31 -2 -34 -9 -18 -12 28 -12 55 0 55 6 0 10
-17 9 -37z m4561 17 c10 0 11 -3 3 -11 -14 -14 -55 -8 -61 10 -4 10 1 12 19 8
13 -4 31 -7 39 -7z m-7745 -23 c-8 -13 -17 -54 -19 -93 -4 -79 -22 -122 -74
-176 -25 -26 -45 -38 -64 -38 -40 0 -35 23 12 54 57 37 70 69 95 219 4 26 13
41 28 47 35 14 39 12 22 -13z m1013 -132 c-4 -107 -8 -139 -21 -152 -15 -15
-16 -14 -23 12 -8 34 2 186 16 238 6 20 16 37 22 37 7 0 9 -42 6 -135z m-4903
70 c55 -13 118 -26 140 -31 22 -4 33 -9 25 -11 -31 -7 -283 46 -299 63 -15 15
-14 16 9 9 14 -4 70 -17 125 -30z m4774 -57 c0 -29 -4 -71 -7 -93 -7 -40 -37
-93 -47 -83 -5 5 13 186 21 216 2 6 10 12 19 12 12 0 15 -12 14 -52z m2305
-151 c-6 -84 -19 -117 -45 -117 -5 0 -25 6 -44 14 -46 19 -75 69 -75 127 0 43
2 46 39 62 21 10 56 37 77 60 l39 42 8 -50 c4 -27 4 -90 1 -138z m-2041 60
c-6 -116 -16 -162 -32 -152 -27 16 -18 227 10 262 23 27 28 -1 22 -110z
m-5040 84 c50 -11 238 -45 417 -76 179 -31 424 -74 545 -95 413 -74 646 -111
673 -108 22 3 17 6 -28 20 -66 19 -688 143 -850 169 -156 25 -400 76 -408 84
-4 4 2 5 13 2 11 -3 106 -20 210 -36 105 -17 368 -60 585 -96 434 -71 1007
-149 1425 -195 339 -37 355 -39 355 -50 0 -5 -28 -28 -62 -53 -35 -24 -99 -69
-142 -101 -90 -65 -61 -62 -286 -31 -58 8 -190 24 -294 35 -413 45 -892 124
-1446 240 -107 23 -258 54 -335 70 -77 16 -194 42 -260 59 -66 16 -141 32
-166 36 -48 6 -89 28 -77 41 4 4 148 -20 320 -54 319 -63 500 -96 963 -176
394 -69 457 -78 467 -68 5 5 4 13 -4 20 -12 9 -263 57 -743 141 -93 16 -246
46 -340 65 -93 20 -233 47 -310 60 -286 50 -369 75 -351 105 10 15 22 14 129
-8z m4617 -142 c0 -16 -4 -29 -10 -29 -5 0 -10 16 -10 36 0 21 4 33 10 29 6
-3 10 -19 10 -36z m580 -38 c0 -70 -12 -100 -24 -58 -8 30 -8 112 1 120 17 18
23 2 23 -62z m936 3 c-3 -26 -6 -60 -6 -75 l0 -29 -353 0 c-267 0 -357 3 -370
13 -9 6 -18 28 -19 47 l-3 35 250 -3 250 -3 100 30 c55 16 113 30 129 30 29 1
29 1 22 -45z m-5826 -97 c459 -103 922 -188 1040 -192 47 -1 180 -18 295 -38
116 -20 311 -47 435 -61 447 -51 495 -58 504 -66 9 -9 -190 -154 -243 -177
-28 -12 -46 -13 -95 -4 -34 6 -126 18 -206 26 -225 23 -384 45 -520 72 -69 13
-190 35 -270 49 -80 13 -203 35 -275 48 -125 24 -297 52 -700 116 -227 36
-377 70 -372 84 2 6 17 10 33 8 29 -3 408 -67 729 -123 94 -16 224 -38 290
-50 66 -11 170 -29 230 -40 118 -22 245 -35 245 -26 0 11 -99 38 -211 56 -63
11 -142 26 -174 34 -33 9 -116 25 -185 37 -69 11 -228 41 -355 65 -126 24
-306 58 -400 75 -93 18 -182 38 -197 46 -28 14 -35 28 -20 38 4 3 120 -17 258
-44 252 -49 405 -78 904 -170 151 -28 294 -55 317 -60 54 -13 113 -13 113 0 0
10 -79 35 -145 45 -22 4 -161 31 -310 61 -148 29 -443 87 -655 129 -212 41
-409 82 -437 90 -46 14 -53 19 -53 42 0 21 4 25 23 20 12 -2 195 -43 407 -90z
m3107 -154 c17 -7 17 -35 -2 -80 -8 -19 -15 -43 -15 -53 0 -9 -11 -37 -23 -61
l-24 -44 -59 3 c-93 5 -298 32 -307 41 -9 9 28 37 188 145 l99 68 65 -7 c35
-4 70 -9 78 -12z m-3282 -102 c94 -17 249 -41 345 -56 96 -14 261 -41 365 -60
105 -19 246 -43 315 -55 69 -11 166 -29 215 -40 50 -10 178 -30 285 -44 172
-22 263 -33 529 -64 35 -4 66 -12 68 -18 3 -9 -185 -144 -200 -144 -3 0 -7 9
-10 20 -6 23 -37 26 -66 8 -10 -6 -27 -8 -37 -4 -18 7 -17 9 4 17 57 22 -9 51
-158 69 -47 6 -112 18 -145 27 -99 26 -122 27 -195 3 -91 -29 -184 -25 -231 9
-27 20 -35 22 -51 12 -12 -7 -33 -10 -51 -6 -78 16 -168 48 -198 71 -18 13
-41 24 -50 24 -10 0 -21 5 -25 11 -8 13 63 9 219 -11 86 -11 111 -9 91 9 -12
11 -217 50 -504 96 -124 20 -259 43 -300 51 -41 8 -124 22 -185 30 -120 15
-226 46 -247 71 -11 14 -9 15 17 9 17 -3 107 -19 200 -35z m-168 -56 c179 -36
759 -133 806 -135 4 0 7 -4 7 -10 0 -19 -71 -21 -196 -5 -71 9 -137 18 -146
21 -12 3 -18 0 -18 -10 0 -25 -20 -29 -28 -5 -11 29 -137 72 -163 56 -12 -8
-26 -6 -50 6 -19 8 -73 23 -120 33 -83 17 -89 17 -145 0 -61 -18 -113 -19
-117 -1 -1 6 10 11 26 13 32 4 35 17 7 32 -20 11 -19 30 1 30 5 0 66 -11 136
-25z m-105 -132 c53 -26 167 -45 154 -25 -4 6 -22 14 -41 18 -20 3 -37 10 -40
14 -9 15 25 19 105 13 67 -5 80 -9 80 -24 0 -14 8 -17 43 -17 30 1 53 -7 80
-25 21 -14 81 -40 132 -57 113 -36 187 -39 307 -10 91 22 126 24 147 11 12 -8
12 -12 2 -25 -18 -21 -9 -30 63 -71 74 -41 146 -65 199 -65 42 0 50 15 12 24
-13 3 -37 12 -52 18 -24 11 -9 13 117 18 80 3 147 4 148 3 2 -1 -13 -11 -35
-21 -22 -12 -43 -33 -51 -51 -13 -29 -12 -33 10 -51 30 -25 15 -25 -57 0 -56
19 -82 19 -69 -1 3 -6 18 -15 32 -21 15 -6 22 -12 15 -15 -17 -6 -259 112
-271 133 -9 16 -14 17 -58 5 -124 -32 -174 -41 -234 -41 -61 0 -102 11 -84 23
15 8 134 37 155 37 18 0 37 25 27 36 -3 2 -60 -9 -128 -26 l-123 -30 -49 46
c-40 38 -54 45 -75 40 -14 -4 -104 3 -201 14 -202 24 -267 47 -337 120 l-40
42 34 -7 c18 -4 56 -18 83 -32z m383 -163 c-8 -13 -72 -30 -114 -30 -18 0 -69
-16 -112 -36 -88 -39 -144 -43 -163 -11 -9 16 -7 22 13 35 43 30 94 42 146 37
28 -3 79 -1 115 3 91 13 122 14 115 2z m1573 -62 c56 -11 62 -14 46 -25 -22
-16 -94 -17 -128 -2 -20 10 -30 8 -59 -10 -19 -11 -50 -21 -68 -22 -19 -1 -45
-4 -59 -8 l-25 -7 23 -15 c39 -24 24 -32 -51 -26 -90 6 -151 24 -174 49 -17
19 -17 20 2 35 16 11 49 14 167 11 147 -3 178 3 145 26 -9 7 -17 15 -17 18 0
6 119 -8 198 -24z m-2018 -43 c19 -23 4 -35 -33 -24 -17 5 -45 9 -61 9 -37 0
-23 17 19 23 56 8 63 7 75 -8z m497 5 c108 0 114 -1 122 -22 5 -14 10 -17 15
-10 9 15 65 16 102 2 20 -8 24 -14 16 -22 -7 -7 -72 -9 -209 -5 -205 5 -303
19 -303 42 0 20 20 25 84 20 32 -3 110 -5 173 -5z m735 -100 c179 -88 228
-100 414 -100 52 0 95 -6 120 -16 41 -17 146 -14 198 6 14 5 26 6 26 2 0 -15
-74 -56 -98 -54 -13 1 -57 -8 -96 -20 -70 -21 -206 -31 -222 -16 -4 5 0 16 9
26 10 10 17 22 17 25 0 13 -111 7 -138 -7 -15 -8 -50 -17 -77 -21 -28 -4 -58
-9 -69 -12 -11 -3 -16 -1 -12 5 3 5 23 12 43 16 41 6 103 40 103 55 0 5 -39
-3 -87 -20 -91 -30 -170 -38 -191 -17 -8 8 -38 12 -80 11 -64 -2 -66 3 -9 21
22 7 22 45 1 53 -9 3 -47 -4 -83 -15 -71 -23 -131 -29 -131 -12 0 6 4 10 10
10 5 0 27 16 49 35 29 26 47 35 75 35 48 0 46 18 -4 26 -22 4 -47 12 -57 19
-15 11 -15 15 -4 29 10 11 30 16 71 16 52 0 75 -8 222 -80z m-1024 56 c15 -8
36 -17 46 -20 10 -4 17 -9 14 -11 -7 -7 -118 27 -118 36 0 13 29 11 58 -5z
m1902 -36 c0 -14 -64 -29 -150 -36 -41 -4 -82 -13 -91 -21 -18 -15 -52 -7 -46
11 9 27 287 72 287 46z m-1491 -39 c11 -7 10 -10 -5 -14 -84 -25 -230 -34
-269 -17 -26 11 -27 11 85 25 120 15 171 17 189 6z m1976 -32 c53 -23 243 -52
281 -43 20 5 22 9 13 20 -10 12 9 14 122 13 84 -1 123 -4 104 -9 -16 -4 -48
-8 -70 -9 -22 -1 -65 -8 -95 -16 -93 -25 -211 -30 -283 -12 -34 9 -88 21 -119
27 -60 12 -80 26 -57 41 22 14 53 10 104 -12z m8310 -9 c14 -44 -37 -80 -136
-94 -42 -6 -49 -4 -86 26 -21 18 -40 37 -42 42 -7 24 65 44 161 45 88 1 97 -1
103 -19z m-7852 -111 c9 -34 -32 -42 -178 -35 -71 4 -142 9 -157 12 -57 13
-25 24 70 25 53 1 122 4 152 9 96 13 107 12 113 -11z m1705 -20 c47 -36 52
-43 38 -51 -25 -14 -128 1 -166 24 -28 16 -31 21 -19 33 11 11 49 26 88 34 2
1 29 -18 59 -40z m4872 20 c0 -21 -3 -22 -76 -16 -94 7 -129 29 -42 26 32 -1
61 1 65 4 3 4 17 7 30 7 17 0 23 -6 23 -21z m-5747 -31 c23 -13 44 -24 46 -26
3 -1 -1 -8 -7 -14 -7 -7 -12 -21 -12 -31 0 -16 -5 -18 -27 -12 -15 3 -37 17
-48 29 -12 13 -27 25 -35 28 -20 6 -2 48 21 48 11 0 39 -10 62 -22z m6017 7
c0 -8 -2 -15 -4 -15 -2 0 -11 -3 -20 -6 -10 -4 -16 -1 -16 9 0 14 13 24 33 26
4 1 7 -6 7 -14z m-8405 -14 c-14 -13 -113 -26 -100 -13 12 12 39 19 80 21 18
1 25 -3 20 -8z m2830 -11 c-3 -5 -31 -17 -62 -26 -58 -17 -127 -14 -181 7 -25
11 -26 12 -7 19 29 12 258 12 250 0z m235 -5 c15 -8 30 -19 32 -25 2 -6 26
-14 53 -18 34 -5 50 -12 50 -22 0 -24 -32 -23 -91 4 -31 14 -60 26 -65 26 -17
0 -9 -29 11 -40 11 -6 20 -16 20 -22 0 -14 -108 -4 -123 11 -6 6 -21 11 -34
11 -13 0 -23 5 -23 10 0 6 9 10 21 10 31 0 59 18 59 39 0 10 3 21 7 24 11 12
53 8 83 -8z m4149 -28 c6 -8 43 -20 83 -27 40 -8 78 -20 83 -27 15 -20 90 -35
133 -27 21 4 51 15 68 25 35 21 60 24 69 9 10 -16 -54 -38 -178 -60 -85 -15
-121 -18 -141 -10 -39 14 -76 12 -82 -5 -11 -29 -80 -9 -131 38 -33 30 -29 54
15 76 44 24 66 26 81 8z m-5057 -41 c37 -19 96 -39 137 -47 84 -15 80 -20 -40
-49 -102 -24 -103 -24 -95 -4 13 33 -13 44 -103 44 -81 0 -161 14 -161 27 0
19 37 43 69 44 20 1 50 5 66 9 51 13 60 11 127 -24z m644 0 c13 -10 16 -18 9
-25 -15 -14 -217 -19 -222 -5 -11 33 174 59 213 30z m834 -26 c0 -19 -50 -30
-133 -30 l-82 1 24 19 c19 16 38 20 107 20 51 0 84 -4 84 -10z m1674 -25 c13
-14 31 -25 40 -25 9 0 16 -7 16 -15 0 -62 -244 -74 -412 -19 -80 26 -65 33 56
29 110 -5 117 -4 178 24 78 37 93 37 122 6z m-369 -100 c39 -15 108 -35 153
-45 46 -10 87 -22 90 -25 4 -4 -38 -5 -93 -3 -80 3 -110 9 -147 27 -58 29
-150 109 -142 123 4 5 20 -3 38 -21 17 -16 63 -42 101 -56z m-1225 54 c-35
-15 -207 -23 -266 -14 -81 13 -19 23 146 23 108 1 139 -2 120 -9z m350 -4
c-16 -19 -41 -19 -66 0 -18 13 -15 14 30 15 42 0 47 -2 36 -15z m260 6 c22 -7
19 -9 -31 -24 -52 -16 -172 -36 -211 -37 -64 -1 55 47 152 61 58 8 61 8 90 0z
m210 -1 c0 -5 -18 -10 -40 -10 -22 0 -40 5 -40 10 0 6 18 10 40 10 22 0 40 -4
40 -10z m30 -48 c0 -16 -51 -32 -98 -31 l-47 1 35 10 c19 5 46 13 60 18 34 11
50 12 50 2z m883 -23 c-11 -11 -98 -35 -145 -41 -52 -6 -29 17 34 34 74 20
127 23 111 7z m-1432 -34 l54 -25 -70 6 c-72 6 -92 14 -81 33 11 17 39 13 97
-14z m-1086 5 c-3 -5 -26 -10 -50 -10 -24 0 -47 5 -50 10 -4 6 15 10 50 10 35
0 54 -4 50 -10z m60 -80 c9 -15 -50 -40 -95 -40 -62 0 -108 31 -62 43 33 9
151 7 157 -3z m-214 -40 c10 -6 19 -15 19 -19 0 -14 -158 -32 -250 -29 l-85 3
75 13 c41 8 98 19 125 27 65 16 92 17 116 5z m514 -65 c22 0 83 4 135 8 75 6
91 5 76 -4 -23 -14 -246 -25 -300 -15 -20 4 -36 12 -36 17 0 7 14 8 43 3 23
-5 60 -9 82 -9z m-557 -20 c-9 -9 -209 -24 -227 -17 -9 4 12 10 49 13 92 8
184 10 178 4z m1607 -199 c30 -14 29 -16 -15 -29 -21 -6 -50 11 -50 28 0 18
25 18 65 1z m-105 -16 c0 -28 -37 -40 -118 -39 -65 0 -162 14 -132 19 24 3
234 37 243 39 4 0 7 -8 7 -19z"/>
<path d="M12376 3770 c-28 -26 -95 -64 -197 -111 -160 -74 -201 -101 -183
-119 19 -19 204 44 365 126 79 39 128 121 83 138 -23 9 -20 10 -68 -34z"/>
<path d="M4814 3896 c-6 -17 12 -56 26 -56 12 0 24 46 15 59 -9 16 -35 13 -41
-3z"/>
<path d="M4474 3905 c-8 -21 2 -45 19 -45 20 0 40 27 33 45 -7 19 -45 20 -52
0z"/>
<path d="M3852 3918 c2 -12 11 -24 21 -26 14 -3 18 1 15 20 -2 12 -11 24 -21
26 -14 3 -18 -1 -15 -20z"/>
<path d="M8391 3071 c-17 -11 -7 -41 13 -41 22 0 30 20 15 36 -9 8 -19 10 -28
5z"/>
<path d="M8732 3058 c2 -12 10 -23 18 -23 22 0 19 39 -3 43 -15 3 -18 -1 -15
-20z"/>
<path d="M2493 3894 c-3 -8 0 -21 6 -27 10 -9 16 -8 26 7 8 10 12 23 9 27 -9
15 -34 10 -41 -7z"/>
<path d="M9427 3169 c-20 -11 -22 -30 -6 -46 17 -17 39 -4 39 22 0 29 -10 36
-33 24z"/>
<path d="M9518 3514 c-14 -13 3 -24 37 -24 19 0 37 5 40 10 3 6 -2 10 -12 10
-10 0 -27 3 -38 6 -11 3 -24 2 -27 -2z"/>
<path d="M9979 3769 c-12 -23 1 -69 20 -69 15 0 31 34 31 64 0 33 -34 36 -51
5z"/>
<path d="M10313 3704 c-7 -18 11 -39 26 -30 17 11 13 46 -4 46 -9 0 -18 -7
-22 -16z"/>
<path d="M10623 3684 c-8 -22 15 -44 26 -25 10 16 4 41 -10 41 -5 0 -12 -7
-16 -16z"/>
<path d="M10675 3430 c-4 -7 -3 -16 3 -22 14 -14 45 -2 40 15 -6 16 -34 21
-43 7z"/>
<path d="M10933 3664 c-8 -21 13 -42 28 -27 13 13 5 43 -11 43 -6 0 -13 -7
-17 -16z"/>
<path d="M10750 3660 c0 -13 45 -24 66 -16 8 3 12 10 9 16 -8 13 -75 13 -75 0z"/>
<path d="M10195 3610 c-4 -7 -3 -16 3 -22 14 -14 45 -2 40 15 -6 16 -34 21
-43 7z"/>
<path d="M4405 2810 c-12 -19 7 -30 73 -42 48 -9 64 -9 76 2 32 26 19 40 -36
38 -29 0 -65 2 -79 7 -17 4 -29 3 -34 -5z"/>
<path d="M2175 2320 c-19 -7 -18 -8 6 -18 26 -10 67 -15 104 -13 17 1 18 3 4
11 -27 16 -94 27 -114 20z"/>
<path d="M6927 5484 c-3 -3 -3 -12 0 -20 6 -16 103 -20 103 -4 0 22 -85 42
-103 24z"/>
<path d="M6901 5416 c-9 -11 -8 -18 4 -30 20 -20 45 -20 70 -3 17 13 17 15 -6
30 -29 21 -53 22 -68 3z"/>
<path d="M7290 5331 c0 -24 56 -91 76 -91 45 0 12 65 -48 96 -26 14 -28 13
-28 -5z"/>
<path d="M7163 5073 c-20 -7 -15 -30 7 -36 23 -6 56 16 46 31 -7 12 -31 14
-53 5z"/>
<path d="M3306 4722 c-3 -6 8 -21 26 -34 17 -13 62 -54 100 -91 63 -63 87 -76
95 -51 5 15 -84 122 -125 148 -44 29 -87 42 -96 28z"/>
<path d="M3853 4584 c-12 -31 11 -48 68 -51 50 -2 154 -32 271 -78 26 -11 51
-16 55 -12 26 27 -88 94 -224 131 -109 30 -161 33 -170 10z"/>
<path d="M3617 4573 c-17 -17 -2 -32 56 -58 65 -28 177 -46 177 -28 0 19 -29
34 -121 64 -99 32 -102 32 -112 22z"/>
<path d="M11970 3064 c-139 -45 -586 -174 -775 -224 -172 -45 -169 -44 -164
-55 2 -5 13 -9 24 -8 30 2 209 39 305 63 47 11 114 28 150 36 138 34 418 116
478 140 45 19 62 31 62 45 0 23 -18 23 -80 3z"/>
<path d="M11960 2941 c-34 -20 -698 -220 -850 -256 -249 -59 -327 -75 -365
-75 -50 0 -193 -18 -215 -27 -8 -3 -31 -7 -50 -8 -53 -4 -180 -24 -191 -30
-27 -17 10 -20 103 -8 57 7 119 15 138 17 19 2 73 9 120 16 47 6 130 15 185
21 93 9 200 30 320 64 28 7 77 19 110 24 115 21 675 191 748 228 16 8 27 20
24 26 -4 15 -56 20 -77 8z"/>
<path d="M10890 2768 c-14 -6 -45 -14 -70 -18 -80 -14 -190 -44 -190 -52 0
-12 127 1 175 17 22 7 61 15 87 18 49 5 82 22 72 38 -7 12 -43 10 -74 -3z"/>
<path d="M9795 2679 c-82 -19 -360 -64 -499 -80 -43 -5 -111 -15 -150 -23 -39
-8 -97 -17 -128 -21 -58 -6 -78 -19 -61 -36 10 -10 189 16 323 46 36 8 106 17
155 20 224 16 484 56 513 79 11 8 10 11 -5 17 -25 10 -99 9 -148 -2z"/>
<path d="M11905 2653 c-11 -2 -47 -13 -80 -23 -190 -60 -629 -174 -732 -190
-57 -9 -73 -16 -73 -32 0 -6 15 -8 38 -5 20 3 69 10 108 15 237 31 774 170
805 208 21 26 -11 39 -66 27z"/>
<path d="M10031 2531 c-11 -7 -5 -11 22 -16 38 -7 61 0 52 16 -8 12 -56 12
-74 0z"/>
<path d="M8823 2523 c-26 -10 -12 -23 26 -23 46 0 73 9 65 21 -5 9 -70 11 -91
2z"/>
<path d="M9944 2519 c-9 -16 18 -30 33 -17 7 6 10 14 7 19 -7 13 -31 11 -40
-2z"/>
<path d="M10595 2510 c-66 -10 -174 -41 -181 -51 -12 -20 33 -21 131 -5 126
20 187 38 193 54 4 14 -59 15 -143 2z"/>
<path d="M9600 2489 c-19 -10 -51 -19 -70 -19 -46 0 -80 -10 -80 -23 0 -18
310 15 370 40 20 8 -59 21 -130 22 -36 0 -67 -7 -90 -20z"/>
<path d="M11810 2486 c-400 -106 -396 -104 -373 -127 20 -20 553 121 553 145
0 13 -101 3 -180 -18z"/>
<path d="M8410 2470 c-63 -4 -134 -8 -157 -9 -24 0 -43 -5 -43 -11 0 -12 117
-13 263 -3 71 4 97 10 97 20 0 7 -9 12 -22 11 -13 -1 -75 -5 -138 -8z"/>
<path d="M9236 2439 c-88 -10 -116 -17 -116 -29 0 -23 279 5 304 30 12 12 -86
11 -188 -1z"/>
<path d="M10118 2435 c-71 -14 -108 -30 -108 -45 0 -14 43 -12 167 6 119 17
173 31 173 45 0 13 -154 9 -232 -6z"/>
<path d="M8995 2404 c-11 -2 -50 -6 -88 -9 -102 -10 -71 -24 41 -19 114 6 142
11 142 24 0 9 -49 11 -95 4z"/>
<path d="M10808 2404 c-3 -3 -41 -9 -84 -14 -110 -13 -155 -23 -155 -35 1 -16
101 -18 146 -2 22 7 73 15 114 16 80 3 126 15 116 31 -6 10 -127 14 -137 4z"/>
<path d="M9863 2380 c-26 -11 -30 -25 -9 -33 23 -9 86 12 86 28 0 17 -41 19
-77 5z"/>
<path d="M11284 2355 c-149 -34 -184 -45 -184 -55 0 -5 29 -7 68 -4 123 10
261 52 247 74 -8 13 -10 12 -131 -15z"/>
<path d="M9710 2365 c-8 -2 -32 -6 -52 -10 -26 -4 -38 -11 -38 -22 0 -14 11
-15 74 -10 74 5 116 19 116 37 0 9 -65 12 -100 5z"/>
<path d="M8305 2350 c-3 -5 0 -13 9 -16 21 -8 71 -1 71 11 0 14 -72 19 -80 5z"/>
<path d="M8422 2351 c-11 -7 -10 -10 3 -15 35 -13 139 -1 129 15 -7 11 -115
11 -132 0z"/>
<path d="M10420 2350 c-78 -13 -188 -40 -215 -52 -44 -20 -28 -31 38 -24 149
14 229 30 278 56 23 13 23 13 4 21 -24 9 -45 9 -105 -1z"/>
<path d="M9539 2346 c-2 -2 -96 -11 -209 -20 -401 -33 -399 -33 -385 -55 10
-17 96 -13 368 14 241 24 306 37 276 56 -14 9 -42 12 -50 5z"/>
<path d="M4272 2308 c-19 -19 -14 -28 23 -44 68 -28 183 -10 143 24 -35 28
-145 41 -166 20z"/>
<path d="M10855 2283 c-16 -2 -55 -11 -85 -19 -46 -14 -52 -17 -36 -26 21 -12
159 4 215 23 63 22 5 35 -94 22z"/>
<path d="M8735 2271 c-17 -4 -79 -8 -138 -9 -59 -1 -239 -9 -399 -17 -161 -8
-384 -15 -496 -15 -112 0 -211 -4 -220 -8 -9 -4 -134 -5 -276 -1 -142 3 -273
3 -289 0 -44 -9 -45 -29 -3 -37 48 -8 1306 13 1461 26 66 5 192 14 280 19 160
10 235 23 235 41 0 11 -110 12 -155 1z"/>
<path d="M9963 2269 c-84 -12 -120 -26 -105 -41 13 -13 233 7 265 24 51 26
-33 35 -160 17z"/>
<path d="M11295 2260 c-11 -5 -32 -9 -47 -9 -15 -1 -30 -5 -33 -11 -8 -13 85
-13 105 0 21 13 0 30 -25 20z"/>
<path d="M12612 2251 c-82 -10 -97 -25 -59 -55 17 -14 32 -38 36 -57 7 -33 8
-34 61 -37 59 -2 92 10 75 27 -7 7 -30 7 -63 2 -75 -12 -62 5 32 43 73 29 109
56 94 71 -10 11 -110 14 -176 6z"/>
<path d="M10602 2241 c-42 -8 -42 -26 1 -27 41 0 80 13 72 26 -7 11 -21 11
-73 1z"/>
<path d="M4206 2225 c-7 -20 14 -33 71 -45 73 -16 147 -10 151 12 5 25 -26 34
-130 40 -66 4 -88 3 -92 -7z"/>
<path d="M9683 2221 c-43 -7 -61 -17 -51 -27 9 -8 161 15 172 26 11 11 -54 12
-121 1z"/>
<path d="M10443 2223 c-18 -7 -16 -20 3 -27 20 -8 94 11 94 24 0 10 -75 13
-97 3z"/>
<path d="M10229 2206 c-3 -3 -63 -10 -134 -16 -143 -12 -165 -16 -165 -32 0
-17 315 3 429 28 20 4 22 7 10 15 -14 9 -132 13 -140 5z"/>
<path d="M9391 2191 c-38 -10 -38 -31 0 -31 39 0 139 22 139 30 0 9 -110 9
-139 1z"/>
<path d="M10925 2183 c-30 -8 -39 -20 -19 -27 26 -8 117 7 118 19 1 11 -66 16
-99 8z"/>
<path d="M10783 2163 c-7 -2 -13 -9 -13 -15 0 -12 70 -1 85 13 9 9 -50 12 -72
2z"/>
<path d="M9120 2145 c0 -15 26 -20 54 -9 28 11 17 24 -19 24 -24 0 -35 -5 -35
-15z"/>
<path d="M10650 2152 c-63 -3 -90 -11 -90 -23 0 -8 18 -9 57 -4 100 12 125 33
33 27z"/>
<path d="M8921 2136 c-11 -13 -10 -17 4 -22 21 -8 86 7 88 21 3 17 -78 18 -92
1z"/>
<path d="M8810 2126 c0 -12 10 -16 36 -16 45 0 42 24 -4 28 -24 2 -32 -1 -32
-12z"/>
<path d="M8445 2120 c-4 -6 13 -10 44 -10 28 0 51 5 51 10 0 6 -20 10 -44 10
-25 0 -48 -4 -51 -10z"/>
<path d="M8605 2120 c-4 -6 10 -10 34 -10 23 0 41 5 41 10 0 6 -15 10 -34 10
-19 0 -38 -4 -41 -10z"/>
<path d="M8710 2120 c0 -5 14 -10 30 -10 17 0 30 5 30 10 0 6 -13 10 -30 10
-16 0 -30 -4 -30 -10z"/>
<path d="M10425 2120 c-8 -12 20 -24 35 -15 5 3 10 10 10 16 0 12 -37 12 -45
-1z"/>
<path d="M9720 2100 c-8 -6 -34 -15 -57 -21 -24 -6 -40 -15 -37 -20 6 -10 121
-1 143 11 8 5 26 4 39 -1 15 -6 31 -5 43 2 31 16 12 29 -39 27 -26 -1 -54 1
-62 5 -8 4 -22 2 -30 -3z"/>
<path d="M4157 2093 c-15 -14 -5 -33 24 -48 38 -20 202 -26 219 -8 22 21 -29
37 -120 36 -59 0 -90 4 -101 13 -9 8 -19 11 -22 7z"/>
<path d="M10580 2079 c-79 -13 -206 -28 -535 -59 -176 -17 -363 -35 -415 -41
-52 -6 -208 -14 -345 -19 -242 -9 -320 -19 -298 -41 12 -12 476 5 693 26 455
44 674 66 680 70 3 2 75 11 160 19 173 18 268 34 276 47 6 11 -153 9 -216 -2z"/>
<path d="M9398 2063 c-10 -2 -18 -9 -18 -15 0 -13 180 -2 195 13 9 9 -142 11
-177 2z"/>
<path d="M12008 2049 c-25 -14 -22 -39 7 -72 29 -32 41 -29 50 13 13 58 -13
85 -57 59z"/>
<path d="M5262 2038 c5 -15 118 -24 118 -10 0 15 -26 22 -77 22 -31 0 -43 -4
-41 -12z"/>
<path d="M9145 2040 c-4 -6 8 -10 29 -10 20 0 36 5 36 10 0 6 -13 10 -29 10
-17 0 -33 -4 -36 -10z"/>
<path d="M5400 2025 c0 -18 67 -32 82 -17 18 18 -1 32 -43 32 -27 0 -39 -4
-39 -15z"/>
<path d="M5528 2034 c-20 -6 -23 -19 -8 -29 5 -3 74 -10 152 -15 483 -31 777
-51 859 -60 176 -18 297 -8 226 19 -16 6 -47 11 -70 11 -24 0 -78 4 -122 10
-103 12 -311 27 -655 46 -151 8 -295 17 -320 19 -25 2 -53 1 -62 -1z"/>
<path d="M12625 2029 c12 -19 55 -30 76 -19 33 18 21 30 -32 30 -33 0 -48 -4
-44 -11z"/>
<path d="M4116 2021 c-17 -27 28 -44 145 -56 51 -5 68 -3 78 8 16 21 5 26 -81
37 -40 5 -87 12 -104 16 -19 3 -34 2 -38 -5z"/>
<path d="M8576 2021 c-3 -5 8 -11 25 -13 43 -7 129 3 129 13 0 12 -147 12
-154 0z"/>
<path d="M6807 1949 c-14 -8 -16 -14 -6 -25 14 -16 75 -19 85 -3 14 24 -48 46
-79 28z"/>
<path d="M6945 1929 c-10 -16 -6 -17 90 -28 219 -25 490 -32 990 -28 703 7
993 25 933 58 -7 4 -150 1 -318 -7 -168 -7 -432 -13 -587 -14 -155 0 -284 -4
-287 -8 -3 -5 -27 -5 -53 -1 -26 4 -110 8 -185 8 -75 1 -170 5 -210 11 -117
15 -366 21 -373 9z"/>
<path d="M550 1911 c0 -27 54 -61 97 -61 41 0 51 -17 20 -31 -18 -8 -30 -8
-45 0 -11 6 -44 11 -72 11 -45 0 -55 4 -94 40 -24 22 -48 40 -54 40 -22 0 -24
-23 -3 -51 26 -35 26 -39 1 -39 -11 0 -23 -7 -26 -15 -12 -30 -121 -45 -169
-23 -19 9 -28 9 -37 0 -23 -23 20 -49 119 -72 87 -21 104 -22 189 -11 151 18
310 15 377 -9 31 -11 66 -20 77 -20 11 0 37 -15 57 -34 22 -19 63 -42 96 -52
52 -16 67 -17 143 -6 133 20 201 50 143 65 -11 3 -18 10 -15 16 10 16 -51 49
-106 56 -31 5 -53 14 -61 25 -9 16 -20 18 -72 13 -55 -5 -63 -3 -92 21 l-32
27 -72 -26 c-82 -29 -219 -46 -219 -25 0 6 15 27 33 45 30 30 40 34 115 40 74
7 116 24 99 41 -3 3 -63 7 -134 8 -94 2 -140 7 -173 20 -77 30 -90 31 -90 7z
m-35 -160 c-14 -12 -85 -22 -85 -11 0 8 17 11 80 18 8 1 10 -1 5 -7z m589 -67
c25 -10 8 -24 -29 -24 -33 0 -51 11 -38 24 8 8 46 8 67 0z m195 -31 c23 -6 23
-7 5 -14 -27 -11 -84 -11 -84 0 0 9 19 17 45 20 6 0 21 -2 34 -6z"/>
<path d="M4267 1923 c-4 -3 -7 -17 -7 -31 l0 -25 25 27 c14 15 25 29 25 32 0
7 -36 5 -43 -3z"/>
<path d="M12055 1874 c-33 -24 -99 -67 -147 -96 -49 -29 -88 -55 -88 -59 0 -4
69 -9 153 -11 144 -5 154 -4 199 19 26 12 54 23 62 23 25 0 86 33 86 46 0 7
-19 18 -42 24 -84 21 -103 31 -133 64 l-30 34 -60 -44z"/>
<path d="M6670 1866 c-61 -24 -111 -58 -108 -74 2 -8 22 -22 46 -31 35 -12 50
-13 86 -3 24 6 89 14 143 18 118 8 144 18 88 33 -22 6 -58 23 -80 38 -47 32
-121 40 -175 19z"/>
<path d="M11782 1853 c-19 -9 -43 -29 -54 -44 -11 -15 -31 -30 -44 -33 -23 -6
-34 -26 -15 -26 15 0 150 57 177 75 53 34 -3 59 -64 28z"/>
<path d="M10885 1811 c-7 -12 32 -34 45 -26 6 3 10 13 10 21 0 16 -45 20 -55
5z"/>
<path d="M10959 1776 c-22 -37 -62 -51 -116 -40 -37 7 -73 -10 -73 -35 0 -16
-6 -18 -37 -15 -21 3 -45 0 -53 -5 -12 -8 -12 -13 4 -30 10 -11 15 -27 12 -38
-10 -31 29 -81 71 -92 52 -15 63 -14 63 5 0 9 -13 21 -30 27 -16 6 -30 14 -30
18 0 9 83 19 166 19 40 0 75 4 79 9 6 11 -56 34 -81 29 -9 -2 -19 3 -21 10 -3
7 4 12 15 12 23 0 52 30 52 56 1 15 4 13 16 -9 12 -22 21 -28 37 -23 12 3 48
6 80 6 50 0 58 2 55 17 -2 10 -12 19 -23 22 -11 2 -26 12 -33 22 -7 10 -28 19
-49 21 -35 3 -61 28 -29 28 8 0 18 5 21 10 4 6 -10 10 -35 10 -36 0 -43 -4
-61 -34z"/>
<path d="M1533 1726 c-51 -11 -93 -24 -93 -29 0 -12 47 -27 83 -27 45 1 142
42 142 60 0 21 -27 21 -132 -4z"/>
<path d="M12231 1720 c-13 -11 -29 -20 -36 -20 -18 0 -48 -37 -40 -49 10 -16
26 -13 50 9 19 17 26 19 50 10 33 -13 50 -1 60 43 7 25 5 27 -26 27 -19 -1
-45 -10 -58 -20z"/>
<path d="M8250 1707 c-35 -14 -56 -29 -58 -41 -3 -15 0 -17 14 -11 43 17 92
16 154 -4 61 -19 66 -20 78 -4 19 26 10 46 -23 53 -17 4 -40 12 -52 18 -30 17
-50 15 -113 -11z"/>
<path d="M3377 1704 c-3 -3 -2 -17 4 -31 5 -13 9 -38 9 -55 0 -43 56 -98 102
-99 79 -3 158 17 158 39 0 5 -32 13 -71 16 -95 10 -125 21 -109 41 9 10 32 15
73 15 55 0 60 2 46 15 -8 9 -57 27 -108 40 -106 29 -96 27 -104 19z"/>
<path d="M3731 1693 c-143 -30 -148 -86 -5 -63 32 6 62 10 66 10 3 0 11 13 16
29 13 38 4 41 -77 24z"/>
<path d="M8985 1699 c-19 -30 -175 -83 -309 -104 -105 -17 -116 -20 -116 -36
0 -22 238 10 382 52 37 11 91 22 120 24 47 4 51 3 35 -9 -10 -7 -64 -26 -120
-40 -56 -14 -127 -33 -157 -41 -72 -20 -245 -20 -282 -1 -47 25 -242 21 -259
-5 -5 -8 -9 -17 -9 -20 0 -13 33 -19 45 -9 10 8 15 6 20 -9 9 -29 36 -34 66
-12 25 19 34 20 111 11 117 -14 223 -12 293 5 84 20 115 19 178 -10 41 -19 79
-27 144 -31 48 -3 100 -10 115 -16 26 -10 78 -3 133 18 19 8 19 -6 0 -71 -5
-17 2 -25 37 -42 24 -12 57 -24 75 -28 69 -14 57 -60 -15 -58 -39 1 -76 -13
-68 -25 2 -4 68 -9 145 -10 121 -2 142 0 147 13 9 23 0 28 -61 33 -37 3 -55 9
-55 18 0 17 33 24 253 51 38 5 49 19 22 29 -8 4 -43 1 -77 -5 -60 -10 -64 -10
-79 11 -16 21 -19 21 -56 7 -32 -13 -51 -14 -110 -5 -73 11 -103 27 -103 54 0
9 -12 29 -27 44 -27 28 -27 28 -159 28 -128 0 -234 13 -234 29 0 13 49 31 121
43 38 7 69 16 69 20 0 4 -14 15 -31 23 -30 16 -30 17 -13 36 9 10 15 19 11 19
-3 0 -41 7 -84 15 -93 18 -90 18 -98 4z"/>
<path d="M735 1681 c-19 -32 71 -91 138 -91 59 0 47 26 -26 59 -85 38 -104 44
-112 32z"/>
<path d="M10363 1678 c-23 -11 -30 -32 -15 -42 10 -6 72 21 72 32 0 8 -26 24
-33 21 -1 0 -12 -5 -24 -11z"/>
<path d="M2860 1670 c0 -5 7 -11 16 -14 19 -7 99 -8 92 -1 -9 10 -108 22 -108
15z"/>
<path d="M11565 1650 c-23 -25 -14 -46 27 -63 l33 -14 -52 -27 c-62 -31 -70
-56 -19 -56 48 0 95 18 141 54 38 29 44 31 160 36 100 5 129 10 170 31 28 13
59 24 70 24 11 0 20 7 20 15 0 8 -7 13 -15 11 -8 -2 -71 -10 -140 -18 -145
-16 -272 -12 -315 11 -40 21 -58 20 -80 -4z"/>
<path d="M3236 1641 c-18 -28 51 -106 139 -159 50 -30 148 -57 166 -46 17 10
9 36 -13 42 -60 15 -199 95 -231 132 -34 40 -51 48 -61 31z"/>
<path d="M1521 1591 c-10 -6 -4 -12 23 -21 63 -20 43 -34 -40 -27 -58 5 -75 4
-72 -6 5 -15 63 -36 103 -37 17 0 36 -4 44 -9 11 -7 9 -12 -10 -24 -34 -22
-191 -66 -258 -73 -111 -10 -141 -15 -141 -24 0 -5 9 -11 19 -15 10 -3 21 -15
24 -25 4 -17 14 -20 62 -20 63 0 65 -10 5 -30 -44 -15 -67 -34 -51 -44 12 -8
140 39 244 89 61 29 87 49 122 92 49 60 61 89 51 128 -10 41 -88 69 -125 46z"/>
<path d="M10360 1554 c-25 -7 -61 -14 -81 -14 -19 0 -44 -6 -55 -14 -18 -14
-18 -15 -2 -21 30 -12 255 19 286 39 44 27 -71 35 -148 10z"/>
<path d="M910 1549 c-19 -5 -75 -14 -125 -20 -52 -6 -108 -19 -133 -32 l-43
-21 -62 22 c-65 23 -97 28 -97 14 0 -16 46 -51 94 -73 83 -36 191 -27 157 14
-17 21 5 27 97 28 82 1 221 41 230 67 4 14 -63 15 -118 1z"/>
<path d="M11155 1548 c-17 -5 -84 -7 -156 -4 -97 5 -130 3 -144 -8 -18 -13
-18 -14 1 -24 11 -6 74 -14 141 -18 113 -6 124 -5 167 16 63 30 56 59 -9 38z"/>
<path d="M10630 1486 c0 -33 20 -46 87 -56 32 -5 90 -14 128 -20 134 -22 190
-27 203 -20 8 4 36 5 63 2 48 -4 109 12 109 29 0 15 -48 21 -113 15 -78 -7
-233 14 -355 48 -115 32 -122 32 -122 2z"/>
<path d="M3047 1493 c-4 -3 -7 -16 -7 -29 0 -21 -3 -22 -85 -20 -66 1 -88 -2
-95 -14 -24 -39 53 -53 144 -25 l50 15 -23 -24 c-19 -20 -34 -24 -104 -28 -68
-4 -84 -2 -97 12 -8 10 -39 26 -68 36 -48 17 -56 17 -80 3 -30 -16 -42 -49
-18 -49 8 0 50 -15 93 -32 77 -33 80 -33 232 -32 142 1 156 2 171 21 13 17 31
21 106 25 91 4 149 24 161 54 10 28 -10 33 -79 22 -56 -10 -76 -9 -128 5 -34
10 -78 29 -98 42 -36 25 -63 31 -75 18z"/>
<path d="M1260 1470 c-36 -11 -109 -24 -163 -30 -102 -10 -117 -14 -117 -31 0
-16 125 -10 237 12 115 22 173 42 173 58 0 16 -57 12 -130 -9z"/>
<path d="M10295 1471 c-31 -5 -40 -10 -40 -26 0 -19 8 -20 135 -25 142 -6 195
5 188 37 -2 13 -25 16 -123 18 -66 1 -138 0 -160 -4z"/>
<path d="M11656 1467 c-10 -8 -16 -19 -12 -25 13 -21 103 -40 213 -45 91 -5
114 -3 124 9 22 27 -7 37 -133 50 -68 7 -134 15 -148 18 -15 4 -33 1 -44 -7z"/>
<path d="M3572 1452 c-2 -7 -1 -16 3 -20 21 -22 316 -15 339 8 5 5 8 11 6 12
-3 1 -81 4 -174 7 -133 5 -170 3 -174 -7z"/>
<path d="M1656 1411 c-48 -48 -93 -73 -250 -138 -74 -30 -88 -46 -43 -51 31
-4 251 93 304 134 49 37 78 104 45 104 -4 0 -30 -22 -56 -49z"/>
<path d="M10691 1384 c5 -24 92 -68 179 -90 136 -34 354 7 394 75 l18 32 -28
-7 c-16 -4 -51 -16 -79 -28 -42 -18 -68 -21 -170 -20 -114 2 -144 7 -294 50
-19 6 -22 4 -20 -12z"/>
<path d="M7731 1380 c-142 -4 -195 -8 -198 -17 -7 -21 35 -30 167 -37 155 -7
337 20 348 52 3 9 -14 11 -60 10 -34 -1 -150 -5 -257 -8z"/>
<path d="M9320 1361 c-19 -11 -216 -28 -416 -37 -158 -6 -189 -13 -166 -36 9
-9 56 -13 173 -14 l160 -1 37 -35 c69 -66 191 -108 315 -108 34 0 100 -5 146
-12 73 -10 96 -9 180 7 79 16 102 25 130 51 34 31 36 54 4 54 -9 0 -37 -12
-62 -27 -45 -27 -50 -27 -196 -27 -82 0 -172 6 -200 12 -27 7 -84 13 -125 15
-42 2 -87 10 -100 17 l-25 14 24 6 c40 9 36 28 -6 32 -53 4 -46 22 13 30 56 8
144 44 144 58 0 12 -10 12 -30 1z"/>
<path d="M8070 1310 c-30 -10 -80 -21 -110 -25 -30 -4 -70 -11 -88 -17 -18 -5
-80 -11 -137 -12 -58 -2 -108 -6 -112 -9 -3 -4 0 -13 7 -22 23 -28 282 -17
390 17 99 31 141 51 138 67 -4 22 -24 22 -88 1z"/>
<path d="M8536 1321 c-13 -20 29 -36 95 -36 67 0 98 12 85 34 -9 13 -172 15
-180 2z"/>
<path d="M9305 1260 c-17 -27 20 -39 58 -18 21 11 21 11 2 19 -29 11 -53 11
-60 -1z"/>
<path d="M3402 1233 c8 -44 198 -102 358 -110 83 -4 139 1 268 21 89 14 173
33 186 41 51 34 41 78 -12 51 -16 -8 -94 -25 -173 -37 -205 -30 -366 -24 -500
20 -110 36 -132 38 -127 14z"/>
<path d="M10790 1232 c0 -10 13 -31 29 -46 30 -29 30 -29 138 -24 107 5 163
20 163 44 0 20 -24 23 -113 17 -64 -4 -96 -2 -132 11 -63 21 -85 21 -85 -2z"/>
<path d="M1020 1199 c-19 -5 -52 -6 -72 -3 -46 7 -61 -15 -33 -46 14 -15 31
-20 74 -20 58 0 169 24 185 40 22 22 -95 44 -154 29z"/>
<path d="M4920 1172 c0 -27 39 -60 91 -77 112 -37 342 -68 549 -74 192 -6 202
-7 160 -20 -91 -27 -177 -41 -254 -41 -98 0 -328 40 -460 80 -111 34 -146 37
-146 15 0 -18 23 -30 114 -61 126 -43 261 -66 427 -71 208 -7 319 16 482 99
75 38 47 43 -219 43 -216 0 -266 3 -374 23 -206 37 -263 52 -302 78 -45 29
-68 31 -68 6z"/>
<path d="M3190 1157 c0 -37 115 -106 213 -127 76 -17 60 -33 -35 -34 -124 -1
-199 37 -242 122 -10 18 -23 31 -29 29 -20 -7 -10 -66 18 -109 l27 -41 -38 6
c-80 13 -148 39 -177 68 -33 34 -60 34 -65 2 -8 -56 101 -104 277 -124 53 -6
119 -14 146 -18 l50 -7 -27 -18 c-54 -35 -171 -46 -279 -26 -86 16 -233 79
-296 126 -17 13 -39 24 -47 24 -20 0 -21 -30 -1 -56 21 -27 18 -36 -6 -23 -17
9 -23 8 -30 -2 -19 -31 58 -91 168 -131 113 -41 342 -34 472 14 52 20 143 44
209 55 38 6 43 34 10 57 l-21 15 24 20 c21 18 39 20 157 21 146 0 246 17 302
52 49 30 25 33 -82 13 -73 -15 -119 -17 -242 -12 -186 8 -269 25 -369 77 -89
45 -87 45 -87 27z m230 -217 c0 -23 -12 -25 -42 -9 -17 9 -18 13 -7 20 25 16
49 10 49 -11z"/>
<path d="M8971 1157 c-9 -11 -8 -17 2 -25 16 -13 140 -54 177 -58 14 -1 75
-12 135 -24 135 -27 333 -33 359 -11 9 8 13 18 9 22 -4 4 -75 11 -158 15 -142
7 -291 28 -380 54 -22 6 -53 15 -70 19 -16 5 -37 12 -46 15 -9 4 -21 1 -28 -7z"/>
<path d="M6640 890 c0 -31 66 -43 210 -37 123 5 200 22 208 45 3 9 -51 12
-207 12 -203 0 -211 -1 -211 -20z"/>
<path d="M4813 893 c-22 -8 -14 -39 11 -51 126 -57 635 -32 613 30 -5 16 -36
15 -187 -1 -136 -15 -299 -6 -410 23 -8 2 -21 2 -27 -1z"/>
</g>
</svg>
